<svg xmlns="http://www.w3.org/2000/svg" width="45" height="45"><path fill="#00A84E" d="M6 10.5a4.5 4.5 0 110-9 4.5 4.5 0 010 9zm0-3a1.5 1.5 0 10-.001-3.001A1.5 1.5 0 006 7.5zm33 3a4.5 4.5 0 110-9 4.5 4.5 0 010 9zm0-3a1.5 1.5 0 10-.001-3.001A1.5 1.5 0 0039 7.5zm-16.5 3a4.5 4.5 0 110-9 4.5 4.5 0 010 9zm0-3a1.5 1.5 0 10-.001-3.001A1.5 1.5 0 0022.5 7.5zM6 43.5a4.5 4.5 0 110-9 4.5 4.5 0 010 9zm0-3a1.5 1.5 0 10-.001-3.001A1.5 1.5 0 006 40.5zm33 3a4.5 4.5 0 110-9 4.5 4.5 0 010 9zm0-3a1.5 1.5 0 10-.001-3.001A1.5 1.5 0 0039 40.5zm-16.5 3a4.5 4.5 0 110-9 4.5 4.5 0 010 9zm0-3a1.5 1.5 0 10-.001-3.001A1.5 1.5 0 0022.5 40.5zM6 27a4.5 4.5 0 110-9 4.5 4.5 0 010 9zm0-3a1.5 1.5 0 10-.001-3.001A1.5 1.5 0 006 24zm33 3a4.5 4.5 0 110-9 4.5 4.5 0 010 9zm0-3a1.5 1.5 0 10-.001-3.001A1.5 1.5 0 0039 24zm-16.5 3a4.5 4.5 0 110-9 4.5 4.5 0 010 9zm0-3a1.5 1.5 0 10-.001-3.001A1.5 1.5 0 0022.5 24z"/></svg>