<svg xmlns="http://www.w3.org/2000/svg" width="45" height="45"><path fill="#00A84E" d="M3.159 12.41L21.55 3.87c.776-.36 1.67-.36 2.446 0l18.394 8.537a2.179 2.179 0 01.112 3.895L24.145 26.14a2.9 2.9 0 01-2.741 0L3.047 16.304a2.179 2.179 0 01.111-3.894zm2.54 2.022l17.075 9.148 17.076-9.148-17.076-7.928L5.7 14.43v.002zm-3.934 6.99a1.45 1.45 0 011.372-2.558l19.637 10.522 19.638-10.52a1.45 1.45 0 012.177 1.319 1.451 1.451 0 01-.807 1.239L24.145 31.947a2.906 2.906 0 01-2.741 0L1.766 21.423h-.001zm0 5.807a1.451 1.451 0 011.372-2.558l19.637 10.522 19.638-10.52a1.45 1.45 0 111.37 2.558L24.145 37.752a2.9 2.9 0 01-2.741 0L1.766 27.23h-.001zm0 5.806a1.45 1.45 0 011.372-2.558L22.774 41l19.638-10.52a1.45 1.45 0 012.177 1.319 1.453 1.453 0 01-.807 1.239L24.145 43.56a2.906 2.906 0 01-2.741 0L1.766 33.035h-.001z"/></svg>