<svg xmlns="http://www.w3.org/2000/svg" width="45" height="45"><path fill="#00A84E" d="M8.25 21a8.25 8.25 0 110-16.5 8.25 8.25 0 010 16.5zm0-3a5.25 5.25 0 100-10.5 5.25 5.25 0 100 10.5zm0 22.5a8.25 8.25 0 110-16.5 8.25 8.25 0 010 16.5zm0-3a5.25 5.25 0 100-10.5 5.25 5.25 0 100 10.5zm14.25-30a1.5 1.5 0 010-3h21a1.5 1.5 0 010 3h-21zm0 6a1.5 1.5 0 010-3h21a1.5 1.5 0 010 3h-21zm0 6a1.5 1.5 0 010-3H33a1.5 1.5 0 010 3H22.5zm0 9a1.5 1.5 0 010-3h21a1.5 1.5 0 010 3h-21zm0 6a1.5 1.5 0 010-3h21a1.5 1.5 0 010 3h-21zm0 6a1.5 1.5 0 010-3H33a1.5 1.5 0 010 3H22.5z" fill-rule="evenodd"/></svg>