<svg xmlns="http://www.w3.org/2000/svg" width="45" height="45"><path fill="#00A84E" d="M31.5 10.737L24 15.112v7.803l7.5-4.285v-7.893zm-.95-2.92l-7.95-4.59-8.133 4.6 8.033 4.686 8.05-4.695zm-17.05 2.92v7.892l7.5 4.285v-7.802l-7.5-4.375zm21 30.178L42 36.63v-8.643l-7.5 4.378v8.55zm-3 0v-8.548L24 28.082v8.548l7.5 4.285zM3 27.987v8.643l7.5 4.285v-8.553L3 27.987zm1.608-2.535l7.4 4.316 7.47-4.269L12 21.228l-7.392 4.224zM33 21.228l-7.475 4.27L33 29.769l7.393-4.316L33 21.228zM13.5 40.915L21 36.63v-8.545l-7.5 4.285v8.545zm-3-22.285V7.587c0-.594.32-1.143.838-1.436L21.795.237a1.649 1.649 0 011.637.007l10.243 5.914c.51.294.825.84.825 1.429V18.63l9.669 5.524c.514.294.831.84.831 1.433v11.826a1.65 1.65 0 01-.831 1.433l-10.35 5.914a1.65 1.65 0 01-1.638 0L22.5 39.228l-9.681 5.532a1.65 1.65 0 01-1.638 0L.831 38.846A1.65 1.65 0 010 37.413V25.587c0-.592.317-1.139.831-1.433L10.5 18.63z" fill-rule="evenodd"/></svg>