<svg xmlns="http://www.w3.org/2000/svg" width="45" height="45"><path fill="#00A84E" d="M12.927 27.5H18v-9h-7.5a1.5 1.5 0 010-3H18V8H3v30h15v-7.5h-5.073l.415.83a1.5 1.5 0 01-2.684 1.341l-1.486-2.973c-.01-.019-.02-.037-.028-.056L8.823 29l.32-.642.029-.056 1.486-2.973a1.5 1.5 0 012.683 1.342l-.414.829zM27 30.5V38h15V8H27v7.5h5.073l-.415-.83a1.5 1.5 0 012.684-1.341l1.486 2.973c.01.019.02.037.028.056l.321.642-.32.642-.029.056-1.486 2.973a1.5 1.5 0 01-2.683-1.342l.414-.829H27v9h7.5a1.5 1.5 0 010 3H27zm-6 0V38a3 3 0 01-3 3H3a3 3 0 01-3-3V8a3 3 0 013-3h15a3 3 0 013 3v7.5h3V8a3 3 0 013-3h15a3 3 0 013 3v30a3 3 0 01-3 3H27a3 3 0 01-3-3v-7.5h-3zm0-3h3v-9h-3v9z" fill-rule="evenodd"/></svg>