<svg xmlns="http://www.w3.org/2000/svg" width="114" height="69"><g fill="none" fill-rule="evenodd"><path fill="#252F3E" d="M31.525 25.009c0 1.417.153 2.565.42 3.408a20.4 20.4 0 001.217 2.757c.19.307.267.613.267.881 0 .383-.228.766-.723 1.15l-2.399 1.608c-.343.23-.686.344-.99.344-.38 0-.761-.191-1.142-.536a11.756 11.756 0 01-1.37-1.8 28.941 28.941 0 01-1.18-2.26c-2.97 3.524-6.701 5.286-11.194 5.286-3.197 0-5.748-.92-7.614-2.758C4.952 31.251 4 28.8 4 25.736c0-3.255 1.142-5.898 3.464-7.89 2.323-1.99 5.407-2.986 9.328-2.986 1.294 0 2.627.114 4.035.306 1.409.191 2.856.498 4.379.843v-2.796c0-2.91-.61-4.94-1.79-6.128-1.218-1.187-3.274-1.762-6.205-1.762-1.333 0-2.703.154-4.112.498a30.24 30.24 0 00-4.112 1.302c-.609.268-1.066.422-1.332.498-.267.077-.457.115-.61.115-.532 0-.799-.383-.799-1.187V4.672c0-.612.076-1.072.267-1.34.19-.268.532-.536 1.066-.804 1.332-.69 2.931-1.264 4.797-1.724C14.24.306 16.22.077 18.315.077c4.53 0 7.842 1.034 9.974 3.102 2.094 2.068 3.16 5.208 3.16 9.421v12.409h.076zm-15.456 5.82c1.256 0 2.55-.229 3.92-.689 1.371-.46 2.59-1.302 3.618-2.45.609-.728 1.065-1.533 1.294-2.452.228-.919.38-2.03.38-3.332v-1.608a31.556 31.556 0 00-3.502-.651 28.545 28.545 0 00-3.578-.23c-2.551 0-4.417.498-5.673 1.532-1.256 1.034-1.866 2.49-1.866 4.404 0 1.8.457 3.14 1.41 4.06.913.957 2.245 1.417 3.997 1.417zm30.57 4.137c-.685 0-1.142-.115-1.446-.383-.305-.23-.571-.766-.8-1.494L35.447 3.485c-.23-.766-.343-1.264-.343-1.532 0-.613.304-.957.914-.957h3.73c.724 0 1.219.115 1.486.383.304.23.532.766.76 1.493l6.397 25.354L54.33 2.872c.19-.766.418-1.263.723-1.493.305-.23.837-.383 1.523-.383h3.046c.723 0 1.218.115 1.523.383.304.23.57.766.723 1.493l6.015 25.66 6.587-25.66c.228-.766.494-1.263.761-1.493.305-.23.8-.383 1.485-.383h3.54c.61 0 .952.306.952.957 0 .192-.038.383-.076.613-.038.23-.114.536-.267.957L71.69 33.128c-.228.766-.495 1.263-.8 1.493-.304.23-.799.383-1.446.383H66.17c-.723 0-1.218-.115-1.523-.383-.305-.268-.571-.766-.723-1.532L58.023 8.387 52.16 33.051c-.19.766-.419 1.264-.723 1.532-.305.268-.838.383-1.523.383H46.64zM95.562 36c-1.98 0-3.96-.23-5.863-.69-1.904-.459-3.388-.957-4.378-1.531-.61-.345-1.029-.728-1.18-1.073a2.7 2.7 0 01-.229-1.072v-1.953c0-.804.305-1.187.876-1.187.228 0 .456.038.685.115.229.076.57.23.952.382a20.5 20.5 0 004.187 1.34 22.7 22.7 0 004.531.46c2.399 0 4.264-.42 5.558-1.263 1.295-.843 1.98-2.068 1.98-3.639 0-1.072-.342-1.953-1.028-2.68-.685-.728-1.98-1.38-3.845-1.992l-5.52-1.723c-2.78-.881-4.835-2.183-6.092-3.907-1.256-1.685-1.904-3.561-1.904-5.553 0-1.608.344-3.025 1.029-4.251a9.824 9.824 0 012.74-3.14c1.143-.881 2.437-1.532 3.96-1.992C93.543.191 95.142 0 96.817 0c.837 0 1.713.038 2.55.153.877.115 1.676.268 2.475.421.762.192 1.485.383 2.17.613.686.23 1.219.46 1.6.69.533.306.913.612 1.142.957.228.306.342.728.342 1.264v1.8c0 .804-.304 1.225-.875 1.225-.305 0-.8-.153-1.447-.46-2.17-.995-4.606-1.493-7.31-1.493-2.17 0-3.883.345-5.063 1.073-1.18.727-1.79 1.838-1.79 3.408 0 1.072.381 1.992 1.143 2.72.761.727 2.17 1.455 4.188 2.106l5.406 1.723c2.74.88 4.72 2.106 5.9 3.677 1.18 1.57 1.752 3.37 1.752 5.361 0 1.647-.343 3.14-.99 4.443-.685 1.302-1.599 2.45-2.779 3.37-1.18.958-2.589 1.647-4.226 2.145-1.713.536-3.502.804-5.444.804z"/><path fill="#F90" d="M103.065 54.715C90.591 64.046 72.468 69 56.885 69c-21.84 0-41.517-8.18-56.38-21.773-1.176-1.075-.114-2.534 1.29-1.69C17.87 54.984 37.7 60.706 58.211 60.706c13.84 0 29.043-2.919 43.034-8.91 2.085-.96 3.867 1.383 1.82 2.92zm5.195-5.99c-1.593-2.074-10.54-.999-14.597-.5-1.214.154-1.404-.921-.304-1.728 7.128-5.068 18.844-3.61 20.21-1.92 1.364 1.728-.38 13.594-7.053 19.277-1.024.884-2.01.423-1.555-.73 1.517-3.8 4.891-12.364 3.3-14.4z"/></g></svg>