<svg xmlns="http://www.w3.org/2000/svg" width="250" height="55"><g fill="none" fill-rule="evenodd"><path fill="#F25022" d="M0 1h25c-.002 8.333 0 16.667-.002 25H0V1"/><path fill="#FEFEFE" d="M25.397 1h2.593c0 8.404-.002 16.809.001 25.213 8.464 0 16.93-.002 25.394 0 .003-8.404.001-16.809.001-25.213H250v19.609c-1.812.006-3.624-.014-5.435.012-.04-2.276-.004-4.552-.02-6.827-1.812.542-3.613 1.12-5.434 1.634-.044 1.727-.003 3.454-.023 5.18-2.679 0-5.357.004-8.036-.002.034-1.36-.094-2.73.103-4.083.163-1.066.785-2.132 1.832-2.544 1.319-.538 2.794-.18 4.048.368-.008-1.558.012-3.116-.01-4.673-2.64-.72-5.664-.58-8.006.933-1.51.96-2.605 2.495-3.098 4.197-.582 1.886-.285 3.877-.378 5.812-1.27-.009-2.54-.021-3.807.008.014 1.456.007 2.913.003 4.368 1.274.026 2.549-.004 3.822.02-.01 6.13-.003 12.258-.003 18.388h5.493c0-6.131-.002-12.263.001-18.394 2.679-.004 5.359-.003 8.039-.001.008 3.908-.008 7.815.006 11.722.024 1.82.337 3.766 1.551 5.203 1.051 1.272 2.72 1.853 4.33 1.971 1.698.12 3.452-.086 5.022-.763V54H53.386V28.787c-8.465 0-16.93-.001-25.395.002-.003 8.403 0 16.807-.001 25.211h-2.593V28.789c-8.466-.005-16.931 0-25.397-.003v-2.573h25.395c.002-8.404 0-16.809.002-25.213"/><path fill="#80BA01" d="M28 1h25c0 8.333.001 16.667-.002 25H28.002C27.999 17.667 28 9.333 28 1"/><path fill="#777" d="M229.215 11.365c2.32-1.526 5.316-1.668 7.93-.94.023 1.57.003 3.143.011 4.716-1.242-.554-2.703-.914-4.01-.372-1.037.416-1.654 1.492-1.815 2.568-.195 1.365-.068 2.748-.101 4.12 2.653.006 5.306.002 7.96.003.02-1.742-.021-3.486.023-5.228 1.804-.52 3.588-1.102 5.383-1.65.016 2.296-.02 4.593.02 6.89 1.794-.026 3.589-.006 5.384-.012v4.469c-1.801-.075-3.604-.02-5.405-.026.007 2.569.001 5.138.003 7.708.029 1.423-.076 2.853.09 4.272.099.836.4 1.762 1.175 2.194 1.298.735 2.945.414 4.137-.392v4.512c-1.555.684-3.293.891-4.974.77-1.596-.118-3.25-.705-4.29-1.99-1.203-1.45-1.513-3.413-1.537-5.25-.014-3.943.001-7.886-.006-11.83-2.655-.002-5.31-.003-7.963.001-.003 6.188-.002 12.376-.002 18.564h-5.441c0-6.187-.008-12.371.003-18.558-1.262-.024-2.525.006-3.787-.02.005-1.468.01-2.938-.003-4.409 1.256-.029 2.513-.016 3.772-.007.092-1.953-.203-3.963.374-5.866.488-1.718 1.573-3.267 3.07-4.236m-117.681-.329c1.007-.16 2.097.2 2.764 1.027.783.905.927 2.344.347 3.402-.64 1.192-2.075 1.746-3.325 1.46-1.297-.244-2.377-1.508-2.319-2.918-.037-1.483 1.146-2.805 2.533-2.97m-41.533.965h7.833c2.438 6.306 4.895 12.605 7.336 18.91.623 1.577 1.207 3.173 1.86 4.737 3.137-7.88 6.319-15.739 9.432-23.629 2.511-.04 5.024-.009 7.537-.015-.006 10.663-.003 21.325-.001 31.988-1.813-.005-3.625.015-5.436-.01.02-7.87-.002-15.738.009-23.608a14.43 14.43 0 00-.033-1.06c-.106.164-.2.335-.283.512-3.113 8.054-6.285 16.086-9.38 24.148-1.29.047-2.58.003-3.871.024-3.212-8.054-6.383-16.127-9.578-24.188a6.376 6.376 0 00-.27-.487c-.067 3.447-.011 6.898-.03 10.346.002 4.774-.002 9.549.002 14.323-1.71.005-3.42 0-5.127.002-.002-10.665-.003-21.329 0-31.993m56.278 9.547c2.65-.752 5.506-.722 8.154.025a6.601 6.601 0 011.566.65c-.03 1.745 0 3.491-.017 5.237-1.77-1.349-4.015-2.204-6.266-1.92-1.786.16-3.49 1.085-4.56 2.525-1.373 1.786-1.69 4.157-1.454 6.34.177 1.71.886 3.418 2.218 4.55 1.385 1.228 3.325 1.663 5.136 1.526 1.79-.205 3.48-.96 4.926-2.016.015 1.653-.007 3.306.012 4.96-2.244 1.331-4.935 1.675-7.503 1.549-2.629-.139-5.25-1.132-7.152-2.975-2.067-1.988-3.19-4.822-3.322-7.662-.134-2.952.468-6.031 2.171-8.497 1.427-2.103 3.659-3.592 6.09-4.292m37.689-.392c2.68-.335 5.507-.186 7.994.924 2.158.955 3.907 2.72 4.876 4.833 1.035 2.25 1.286 4.777 1.11 7.217-.171 2.383-.934 4.77-2.454 6.663-1.555 2.01-3.9 3.372-6.41 3.878a16.356 16.356 0 01-6.538-.006c-2.568-.538-4.945-2-6.45-4.125-1.768-2.463-2.27-5.595-2.046-8.546.152-2.504.946-5.027 2.577-6.992 1.787-2.2 4.527-3.498 7.341-3.846m22.802.04c2.656-.446 5.437-.119 7.95.79.004 1.678 0 3.356.002 5.034a10.485 10.485 0 00-6.033-1.7c-1.073.04-2.254.474-2.743 1.447-.39.963-.12 2.226.832 2.802 1.63 1.039 3.572 1.48 5.26 2.41 1.329.713 2.617 1.644 3.29 2.985 1.266 2.513.73 5.833-1.494 7.707-2.123 1.893-5.181 2.416-7.994 2.315-1.997-.123-4.003-.499-5.84-1.277.008-1.766-.01-3.53.01-5.295 1.544 1.07 3.326 1.834 5.212 2.145 1.312.203 2.74.213 3.964-.347 1.17-.555 1.381-2.142.685-3.112-.65-.749-1.606-1.16-2.507-1.565-1.693-.726-3.471-1.333-4.958-2.42-1.045-.778-1.836-1.873-2.146-3.108-.459-1.82-.315-3.872.795-5.463 1.268-1.855 3.471-2.966 5.715-3.348m21.262-.048c2.789-.34 5.75-.155 8.295 1.104 2.22 1.087 3.94 3.051 4.8 5.323.672 1.738.908 3.614.869 5.464.005 2.765-.757 5.602-2.528 7.794-1.657 2.123-4.193 3.502-6.87 3.935-2.618.416-5.383.308-7.871-.652-2.52-.971-4.615-2.954-5.677-5.396-1.106-2.489-1.223-5.29-.878-7.95.361-2.658 1.59-5.258 3.685-7.027 1.717-1.476 3.927-2.312 6.175-2.595m-59.994.619c1.476-.896 3.35-.97 4.962-.423-.007 1.802 0 3.603-.004 5.405-1.055-.69-2.37-.986-3.615-.858-1.517.174-2.72 1.351-3.344 2.701-.677 1.43-.804 3.047-.761 4.61V44h-5.272c-.004-7.521.006-15.044-.004-22.565 1.76-.023 3.52-.014 5.279-.005-.008 1.292 0 2.583-.005 3.876.572-1.405 1.423-2.77 2.764-3.537M109 21.012c1.666-.008 3.334-.026 5 .009-.02 7.66-.001 15.32-.008 22.98h-4.99c-.003-7.663.002-15.325-.002-22.99"/><path fill="#FEFEFE" d="M166.122 25.015c1.74-.108 3.593.357 4.844 1.552 1.338 1.242 1.856 3.044 1.999 4.762.103 1.881.02 3.841-.815 5.584-.554 1.175-1.567 2.168-2.845 2.639-1.496.542-3.177.574-4.72.196a5.713 5.713 0 01-3.63-2.827c-.933-1.758-1.073-3.791-.88-5.72.175-1.753.822-3.556 2.237-4.766 1.026-.905 2.425-1.347 3.81-1.42m43.898.004c1.634-.108 3.378.249 4.634 1.292 1.158.908 1.799 2.268 2.093 3.638.33 1.607.327 3.27.048 4.884-.222 1.202-.662 2.402-1.495 3.354-.84.957-2.09 1.54-3.38 1.719-1.384.196-2.842.102-4.137-.425-1.397-.56-2.48-1.703-3.05-3.018-.685-1.567-.822-3.302-.685-4.979.131-1.623.618-3.289 1.752-4.55 1.034-1.179 2.62-1.83 4.22-1.915m34.983-.004c1.665.006 3.332-.051 4.997.026v14.132c-1.102.83-2.625 1.159-3.825.404-.716-.445-.994-1.396-1.087-2.255-.152-1.457-.055-2.926-.082-4.388-.001-2.641.004-5.28-.003-7.92"/><path fill="#02A4EF" d="M0 29c8.333.003 16.666-.001 25 .003V54H0V29"/><path fill="#FFB902" d="M28.002 29.002C36.333 28.999 44.667 29 53 29v25H28c.002-8.333-.002-16.666.002-24.998"/></g></svg>