<svg xmlns="http://www.w3.org/2000/svg" width="24" height="24"><g fill="none" fill-rule="evenodd"><path d="M0 0h24v24H0z"/><path fill="#FFF" fill-rule="nonzero" d="M11.33 8.86l-.712.713A1.007 1.007 0 0010.621 11l2.373 2.372a1.01 1.01 0 001.43.002l.712-.711a.674.674 0 01.953-.001l2.615 2.613c.394.394.396 1.03-.002 1.428l-1.426 1.425c-.919.918-2.586 1.16-3.702.492 0 0-1.786-.75-4.604-3.566-2.817-2.814-3.596-4.633-3.596-4.633-.65-1.125-.43-2.783.486-3.699l1.426-1.424a1.01 1.01 0 011.43-.002l2.615 2.613a.672.672 0 010 .952zM6.813 7.674c-.487.486-.57 1.46-.273 2.077 0 0 .475.861.69 1.178.636.937 1.52 2.004 2.693 3.176 1.172 1.172 2.233 2.05 3.16 2.676.313.211 1.183.687 1.183.687.563.294 1.564.205 2.06-.29l1.19-1.189-1.902-1.9-.238.237c-.92.92-2.41.919-3.332-.002L9.669 11.95a2.353 2.353 0 01-.002-3.329l.238-.238-1.903-1.9-1.19 1.189z"/></g></svg>