<svg xmlns="http://www.w3.org/2000/svg" width="62" height="62"><g fill="none" fill-rule="evenodd"><circle cx="31" cy="31" r="30" fill="#FFF" stroke="#00A84E" stroke-width="2"/><g fill-rule="nonzero"><path fill="#F96232" d="M28.425 33.612l.224.224c.39.39.896.646 1.447.723 1.836.262 2.559 2.61 1.202 3.863-1.305 1.203-3.487.416-3.736-1.33a2.544 2.544 0 00-.723-1.446l-.225-.224-2.936 2.93-3.155-3.154-1.356-1.356-.454-.454-1.357-1.356L16 30.676 23.678 23l2.936 2.936-.23.224c-.39.39-.895.646-1.446.723-1.746.25-2.534 2.43-1.33 3.735 1.253 1.357 3.601.627 3.864-1.202.076-.55.333-1.056.723-1.446l.224-.23 2.936 2.936-2.93 2.936z"/><path fill="#43D3E8" d="M46 31.324L38.322 39l-2.937-2.936.23-.224c.39-.39.896-.646 1.447-.723 1.746-.25 2.533-2.43 1.33-3.735-1.254-1.357-3.602-.627-3.864 1.202a2.55 2.55 0 01-.723 1.446l-.225.23-2.936-2.936 2.937-2.936-.23-.224a2.544 2.544 0 00-1.446-.723c-1.837-.262-2.56-2.61-1.203-3.863 1.305-1.203 3.487-.416 3.736 1.33a2.55 2.55 0 00.723 1.446l.225.23 2.936-2.936 3.154 3.154 1.357 1.356.454.454 1.357 1.356L46 31.324z"/><g fill="#383838"><path d="M41.835 27.115a.64.64 0 01-.453-.188l-3.154-3.155a.639.639 0 11.904-.904l3.155 3.154a.64.64 0 01-.452 1.093zm1.81 1.809a.637.637 0 01-.452-.186l-.453-.453a.64.64 0 01.904-.905l.454.452a.64.64 0 01-.453 1.092zm2.715 2.716a.635.635 0 01-.452-.188l-1.358-1.357a.64.64 0 11.905-.905l1.357 1.358a.639.639 0 01-.452 1.092z"/><path d="M38.68 23.96a.635.635 0 01-.452-.188l-7.68-7.68a.639.639 0 11.904-.904l7.68 7.68a.639.639 0 01-.452 1.092zm-15.36 0a.639.639 0 01-.452-1.092l3.154-3.155a.64.64 0 11.905.905l-3.155 3.154a.635.635 0 01-.452.188zm4.512-4.512a.64.64 0 01-.453-1.092l.454-.453a.64.64 0 11.905.906l-.454.452a.638.638 0 01-.452.187z"/><path d="M29.643 17.637a.638.638 0 01-.453-1.092l1.358-1.357a.639.639 0 11.904.904l-1.357 1.358a.638.638 0 01-.452.187zM15.64 31.64a.639.639 0 01-.452-1.092l7.68-7.68a.639.639 0 11.904.904l-7.68 7.68a.635.635 0 01-.452.188zm7.68 7.68a.635.635 0 01-.452-.188l-3.155-3.154a.64.64 0 11.905-.905l3.154 3.155a.639.639 0 01-.452 1.092zm-4.512-4.512a.638.638 0 01-.452-.187l-.454-.452a.64.64 0 01.905-.906l.453.453a.64.64 0 01-.452 1.092z"/><path d="M16.997 32.997a.638.638 0 01-.452-.187l-1.357-1.358a.639.639 0 11.904-.904l1.358 1.357a.64.64 0 01-.453 1.092zM31 47a.635.635 0 01-.452-.188l-7.68-7.68a.639.639 0 11.904-.904l7.68 7.68A.639.639 0 0131 47zm4.525-4.525a.64.64 0 01-.452-1.093l3.155-3.154a.639.639 0 11.904.904l-3.154 3.155a.64.64 0 01-.453.188zm-1.81 1.809a.638.638 0 01-.453-1.092l.454-.452a.64.64 0 11.905.905l-.454.453a.637.637 0 01-.452.186z"/><path d="M31 47a.639.639 0 01-.452-1.092l1.357-1.358a.64.64 0 11.905.905l-1.358 1.357A.635.635 0 0131 47zm4.745-10.615a.64.64 0 01-.453-1.093l.227-.226a.64.64 0 11.905.905l-.227.226a.635.635 0 01-.452.188zm-1.81-1.81a.638.638 0 01-.452-1.092l.226-.227a.64.64 0 11.905.905l-.226.227a.644.644 0 01-.453.187zm3.484.86a.64.64 0 01-.09-1.273c.584-.084 1.055-.478 1.26-1.056.206-.577.091-1.18-.308-1.612-.418-.452-1.031-.61-1.646-.42-.611.191-1.028.668-1.115 1.278a.64.64 0 11-1.268-.181c.157-1.094.924-1.983 2.003-2.318 1.082-.337 2.216-.04 2.967.774.716.777.936 1.892.574 2.909a2.862 2.862 0 01-2.285 1.893.734.734 0 01-.092.006z"/><path d="M33.935 34.575a.638.638 0 01-.452-.187l-2.935-2.936a.639.639 0 11.904-.904l2.936 2.935a.64.64 0 01-.453 1.092zm4.745 4.745a.639.639 0 01-.452-1.092l7.68-7.68a.639.639 0 11.904.904l-7.68 7.68a.635.635 0 01-.452.188z"/><path d="M38.68 39.32a.635.635 0 01-.452-.188l-2.936-2.935a.64.64 0 11.905-.905l2.935 2.936a.639.639 0 01-.452 1.092zm-12.199-2.708a.64.64 0 01-.453-.188l-.226-.227a.64.64 0 11.905-.905l.226.227a.64.64 0 01-.452 1.093zm1.811-1.811a.64.64 0 01-.453-.188l-.227-.226a.64.64 0 11.905-.905l.227.226a.64.64 0 01-.452 1.093zm1.162 5.166c-.33 0-.664-.056-.988-.171a2.864 2.864 0 01-1.895-2.286.64.64 0 111.268-.181c.083.584.478 1.055 1.056 1.26.577.206 1.179.09 1.612-.308.453-.418.61-1.034.419-1.647-.19-.611-.668-1.028-1.277-1.115a.64.64 0 11.181-1.267c1.094.156 1.982.923 2.318 2.001.336 1.08.04 2.217-.774 2.968a2.822 2.822 0 01-1.92.746z"/><path d="M28.065 34.575a.64.64 0 01-.453-1.092l2.936-2.935a.639.639 0 11.904.904l-2.935 2.936a.638.638 0 01-.452.187zM23.32 39.32a.639.639 0 01-.452-1.092l2.935-2.936a.64.64 0 11.905.905l-2.936 2.935a.635.635 0 01-.452.188zm2.708-12.199a.64.64 0 01-.452-1.093l.227-.226a.64.64 0 11.905.905l-.227.226a.635.635 0 01-.453.188zm1.811 1.811a.64.64 0 01-.452-1.093l.226-.227a.64.64 0 11.905.905l-.226.227a.643.643 0 01-.453.188zm-2.979 3.352a2.814 2.814 0 01-2.081-.91 2.858 2.858 0 01-.575-2.908 2.862 2.862 0 012.286-1.894.64.64 0 11.181 1.266c-.584.084-1.055.478-1.26 1.056-.206.577-.091 1.18.308 1.612.418.453 1.033.61 1.646.42.611-.191 1.028-.668 1.115-1.278a.64.64 0 111.268.181c-.157 1.094-.924 1.983-2.003 2.318a2.93 2.93 0 01-.885.137z"/><path d="M31 31.64a.635.635 0 01-.452-.188l-2.936-2.935a.64.64 0 11.905-.905l2.935 2.936A.639.639 0 0131 31.64zm-4.745-4.745a.638.638 0 01-.452-.187l-2.935-2.936a.639.639 0 11.904-.904l2.936 2.935a.64.64 0 01-.453 1.092zm9.49 0a.642.642 0 01-.453-.187l-.226-.227a.64.64 0 11.905-.905l.226.227a.64.64 0 01-.452 1.092zm-1.81 1.81a.635.635 0 01-.452-.188l-.227-.226a.64.64 0 11.905-.905l.227.226a.64.64 0 01-.453 1.093zm-1.674-.95a.567.567 0 01-.091-.007c-1.094-.156-1.982-.923-2.318-2.001-.336-1.08-.04-2.217.774-2.968a2.86 2.86 0 012.908-.575 2.864 2.864 0 011.895 2.286.64.64 0 11-1.268.181c-.083-.584-.478-1.055-1.056-1.26-.576-.206-1.178-.09-1.612.308-.453.418-.61 1.034-.419 1.647.19.611.668 1.028 1.277 1.115a.64.64 0 01-.09 1.274z"/><path d="M31 31.64a.639.639 0 01-.452-1.092l2.935-2.936a.64.64 0 11.905.905l-2.936 2.935a.635.635 0 01-.452.188zm4.745-4.745a.64.64 0 01-.453-1.092l2.936-2.935a.639.639 0 11.904.904l-2.935 2.936a.638.638 0 01-.452.187z"/><path d="M33.708 28.479a.642.642 0 01-.452-.187 1.93 1.93 0 00-1.086-.543.64.64 0 11.181-1.267c.68.098 1.323.419 1.81.905a.641.641 0 01-.453 1.092zm1.811-1.811a.634.634 0 01-.452-.187 3.215 3.215 0 01-.905-1.81.64.64 0 011.267-.181c.059.408.251.794.543 1.086a.64.64 0 01-.453 1.092zm-8.403 3.712a.64.64 0 01-.635-.731 3.219 3.219 0 01.905-1.81.64.64 0 01.905.904 1.93 1.93 0 00-.543 1.086.639.639 0 01-.632.55zm-2.536-2.535a.64.64 0 01-.089-1.273 1.927 1.927 0 001.086-.543.64.64 0 11.905.906 3.238 3.238 0 01-1.81.905.98.98 0 01-.092.005zm5.16 7.68a.576.576 0 01-.092-.006 3.225 3.225 0 01-1.81-.905.641.641 0 01.905-.906c.292.292.678.486 1.086.544a.64.64 0 01-.089 1.274zm-2.536 2.535a.642.642 0 01-.633-.55 1.924 1.924 0 00-.543-1.087.64.64 0 11.905-.905c.487.487.808 1.13.905 1.811a.64.64 0 01-.634.73zm6.957-3.712a.638.638 0 01-.453-1.092 1.93 1.93 0 00.543-1.086.64.64 0 111.268.18 3.221 3.221 0 01-.905 1.811.64.64 0 01-.453.187zm1.811 1.811a.641.641 0 01-.453-1.093 3.225 3.225 0 011.81-.905.64.64 0 11.181 1.267 1.927 1.927 0 00-1.086.543.64.64 0 01-.452.188z"/></g></g></g></svg>