<svg xmlns="http://www.w3.org/2000/svg" width="62" height="62"><g fill="none" fill-rule="evenodd"><circle cx="31" cy="31" r="30" fill="#FFF" stroke="#00A84E" stroke-width="2"/><g fill-rule="nonzero" transform="translate(17 15)"><path fill="#FFF" d="M7.22 6.863a5.45 5.45 0 01-.609-.038c-3.048 0-5.52 2.572-5.52 5.746 0 3.173 2.472 5.745 5.52 5.745h15.452c2.438 0 4.415-2.058 4.415-4.596 0-2.151-1.42-3.952-3.337-4.453-.346-.09-2.244-.144-2.617-.144.373 0 2.271.053 2.617.144l.004-.017c-.238-4.747-4.128-8.395-8.687-8.147-3.34.182-6.245 2.44-7.362 5.722l-.005.025.129.013"/><path fill="#E6E7E8" d="M10.705 9.551c.161.001.322.01.481.025l.005-.025c1.116-3.281 4.022-5.54 7.361-5.721a7.926 7.926 0 012.64.299C19.58 2.155 17.135.958 14.458 1.103c-3.34.182-6.245 2.44-7.362 5.722h-.485c-3.048 0-5.52 2.572-5.52 5.746 0 2.953 2.142 5.385 4.896 5.708-.508-.87-.8-1.89-.8-2.982 0-3.173 2.47-5.746 5.518-5.746z"/><path fill="#3E4D6C" d="M22.063 19.408c3.037 0 5.507-2.552 5.507-5.688 0-2.326-1.363-4.383-3.397-5.25-.587-4.839-4.827-8.725-9.775-8.457-3.542.193-6.627 2.412-8.053 5.726C2.823 5.883 0 8.892 0 12.57c0 3.77 2.966 6.837 6.61 6.837H7.7v5.842H3.564v2.184H8.79c.603 0 1.092-.489 1.092-1.092v-6.934h2.81v9.803h2.184v-9.803h2.758v6.934c0 .603.49 1.092 1.092 1.092h5.226V25.25h-4.134v-5.843h2.244zm-19.88-6.837c0-2.567 1.987-4.654 4.424-4.654a4.343 4.343 0 012.646.92l1.338-1.726c-.6-.466-1.27-.82-1.98-1.053 1.185-2.25 3.398-3.728 5.906-3.864C18.065 2 21.18 4.65 21.896 8.07c-.7-.03-1.36-.039-1.372-.039v2.184c.462 0 2.032.056 2.357.113 1.476.394 2.505 1.786 2.505 3.392 0 1.932-1.49 3.504-3.323 3.504H6.611c-2.441 0-4.427-2.087-4.427-4.653z"/><ellipse cx="13.785" cy="29.211" fill="#0795FE" rx="2.73" ry="2.727"/><ellipse cx="3.292" cy="26.342" fill="#0795FE" rx="2.73" ry="2.727"/><ellipse cx="24.226" cy="26.342" fill="#0795FE" rx="2.73" ry="2.727"/></g></g></svg>