<svg xmlns="http://www.w3.org/2000/svg" width="62" height="62"><g fill="none" fill-rule="evenodd"><circle cx="31" cy="31" r="30" fill="#FFF" stroke="#00A84E" stroke-width="2"/><g fill-rule="nonzero"><g transform="translate(13 15.079)"><path fill="#FFF" d="M16.259 19.322H1.184v-2.508c0-4.169 3.374-7.549 7.537-7.549s7.538 3.38 7.538 7.55v2.507z"/><path fill="#E6E7E8" d="M10.3 9.432a7.474 7.474 0 00-1.579-.167c-4.163 0-7.537 3.386-7.537 7.563v2.494H4.34v-2.494a7.558 7.558 0 015.96-7.396z"/><path fill="#3E4D6C" d="M6.756 20.51H1.184A1.187 1.187 0 010 19.321v-2.494c0-2.259.855-4.403 2.409-6.038l1.713 1.64a6.353 6.353 0 00-1.755 4.398v1.306h4.389v2.375z"/><ellipse cx="8.721" cy="5.938" fill="#FFF" rx="4.734" ry="4.75"/><path fill="#E6E7E8" d="M7.143 6.73a4.745 4.745 0 014.235-4.724 4.705 4.705 0 00-2.657-.818c-2.614 0-4.734 2.127-4.734 4.75 0 2.624 2.12 4.75 4.734 4.75.169 0 .336-.009.5-.026A4.75 4.75 0 017.143 6.73z"/><path fill="#3E4D6C" d="M8.721 11.876c-3.263 0-5.918-2.664-5.918-5.938C2.803 2.664 5.458 0 8.721 0c3.263 0 5.918 2.664 5.918 5.938 0 3.274-2.655 5.938-5.918 5.938zm0-9.5a3.56 3.56 0 00-3.55 3.562 3.56 3.56 0 003.55 3.563 3.56 3.56 0 003.551-3.563 3.561 3.561 0 00-3.55-3.563z"/></g><g transform="translate(33.667 15)"><path fill="#FFF" d="M15.078 19.322H.002v-2.508c0-4.17 3.375-7.549 7.538-7.549s7.538 3.38 7.538 7.55v2.507z"/><path fill="#E6E7E8" d="M7.54 9.265a7.53 7.53 0 00-1.578.167 7.56 7.56 0 015.96 7.396v2.494h3.156v-2.494c0-4.177-3.375-7.563-7.538-7.563z"/><path fill="#3E4D6C" d="M15.078 20.51H9.506v-2.376h4.388v-1.306c0-1.612-.6-3.15-1.692-4.332l1.736-1.615a8.74 8.74 0 012.323 5.947v2.494c0 .656-.53 1.187-1.183 1.187z"/><ellipse cx="7.54" cy="5.938" fill="#FFF" rx="4.734" ry="4.75"/><path fill="#E6E7E8" d="M7.54 1.188a4.71 4.71 0 00-3.437 1.486 4.743 4.743 0 015.489 4.689 4.745 4.745 0 01-1.297 3.265 4.747 4.747 0 003.98-4.69c0-2.624-2.12-4.75-4.735-4.75z"/><path fill="#3E4D6C" d="M7.54 11.876c-3.263 0-5.918-2.664-5.918-5.938C1.622 2.664 4.277 0 7.54 0c3.263 0 5.918 2.664 5.918 5.938 0 3.274-2.655 5.938-5.918 5.938zm0-9.5a3.56 3.56 0 00-3.55 3.562 3.56 3.56 0 003.55 3.563 3.56 3.56 0 003.55-3.563 3.56 3.56 0 00-3.55-3.563z"/></g><g transform="translate(19.155 18.55)"><path fill="#FFF" d="M23.386 27.19H1.232v-3.685c0-6.127 4.96-11.094 11.077-11.094 6.118 0 11.077 4.967 11.077 11.094v3.685z"/><path fill="#E6E7E8" d="M13.65 12.492c-.44-.053-.887-.081-1.34-.081-6.118 0-11.078 4.976-11.078 11.114v3.665h2.683v-3.665c0-5.683 4.25-10.369 9.736-11.033z"/><path fill="#3E4D6C" d="M11.126 14.408h2.367v7.505h-2.367z"/><path fill="#3E4D6C" d="M23.386 28.377H1.232A1.185 1.185 0 01.05 27.19v-3.665c0-3.662 1.61-7.109 4.416-9.455l1.516 1.825a9.918 9.918 0 00-3.565 7.63v2.477h19.787v-2.477a9.93 9.93 0 00-3.501-7.577l1.53-1.812a12.304 12.304 0 014.338 9.39v3.664c0 .655-.53 1.187-1.184 1.187z"/><ellipse cx="12.309" cy="7.521" fill="#0795FE" rx="7.496" ry="7.521"/></g></g></g></svg>