<svg xmlns="http://www.w3.org/2000/svg" width="62" height="62"><g fill="none" fill-rule="evenodd"><circle cx="31" cy="31" r="30" fill="#FFF" stroke="#00A84E" stroke-width="2"/><path fill="#0072C6" fill-rule="nonzero" d="M18 19.133L35.535 16c.006 10 0 20 0 30-5.841-1.034-11.682-2.087-17.535-3.12V19.132zm5.84 6.77c-.716.849-.938 2.021-.806 3.098.108.938.632 1.798 1.343 2.393.65.553 1.481.89 2.065 1.54.44.486.548 1.298.109 1.821-.35.421-.952.451-1.446.367-.83-.12-1.535-.631-2.083-1.25l.006 2.591c.807.613 1.849.83 2.842.824.705-.018 1.421-.18 1.993-.608.717-.523 1.132-1.377 1.235-2.242.144-1.01-.024-2.1-.65-2.929-.549-.691-1.283-1.197-2.03-1.641-.403-.247-.807-.512-1.078-.908-.319-.542-.307-1.311.163-1.756.391-.38.987-.41 1.5-.35.625.067 1.215.35 1.703.734v-2.573c-.813-.33-1.716-.367-2.577-.3-.873.113-1.728.51-2.288 1.19zm13.393-4.876c.602-.59 1.439-.95 2.288-.872 1.21.066 2.276 1.01 2.577 2.17.12.44.127.897.054 1.342a7.885 7.885 0 014.294 4.42 2.852 2.852 0 012.426.673c1.018.872 1.295 2.453.675 3.644-.554 1.119-1.879 1.786-3.107 1.533-.753 1.967-2.325 3.608-4.276 4.408.169.968-.126 2.009-.83 2.706-.73.752-1.903 1.028-2.897.692a2.811 2.811 0 01-1.192-.77v-4.131c.566-.59 1.373-.95 2.192-.908.776.018 1.499.409 2.023.956 1.644-.65 2.962-2.027 3.565-3.686-.488-.505-.837-1.155-.91-1.858-.12-.932.26-1.876.91-2.532-.603-1.665-1.927-3.055-3.583-3.704a2.88 2.88 0 01-1.86.968c-.868.096-1.741-.276-2.35-.89v-4.16z"/></g></svg>