<svg xmlns="http://www.w3.org/2000/svg" width="62" height="62"><g fill="none" fill-rule="evenodd"><circle cx="31" cy="31" r="30" fill="#FFF" stroke="#00A84E" stroke-width="2"/><g fill-rule="nonzero"><path fill="#FFF" d="M43.787 43.319H18.214V26.421a1.4 1.4 0 011.397-1.394H42.39a1.4 1.4 0 011.397 1.394v16.898z"/><path fill="#E6E7E8" d="M21.633 25.095h-3.419v18.224h25.573v-4.368h-8.274c-7.666 0-13.879-6.203-13.879-13.856z"/><path fill="#FFF" d="M44.607 45.913H17.393a1.36 1.36 0 01-1.367-1.358v-3.351H26.88l.704 1.706h6.818l.703-1.706h10.868v3.351a1.36 1.36 0 01-1.367 1.358z"/><path fill="#3E4D6C" d="M45.974 40.18h-1.162V26.427c0-1.317-1.07-2.355-2.39-2.355h-2.328v2.047h2.329c.188 0 .338.12.338.308V40.18h-7.655c-.415 0-.79.25-.948.634l-.442 1.072h-5.444l-.443-1.072a1.025 1.025 0 00-.948-.634H19.24V26.427c0-.188.158-.308.346-.308h2.39v-2.047h-2.39c-1.32 0-2.397 1.038-2.397 2.355V40.18h-1.163c-.567 0-1.026.487-1.026 1.053v3.328a2.384 2.384 0 002.393 2.376h27.214c1.32 0 2.393-1.06 2.393-2.376v-3.328c0-.566-.46-1.053-1.026-1.053zm-1.025 4.38c0 .188-.154.33-.342.33H17.393a.333.333 0 01-.342-.33v-2.332h9.143l.443 1.072c.158.383.533.634.948.634h6.818c.415 0 .79-.251.948-.634l.442-1.072h9.156v2.333z"/><path fill="#0795FE" d="M37.769 28.329h.005a15.07 15.07 0 01-13.55 0h.007v-7.533h13.538v7.533z"/><path fill="#FFF" d="M31 23.81l-9.32-3.893L31 16.024l9.321 3.893z"/><path fill="#3E4D6C" d="M30.604 24.755l-9.32-3.893c-.822-.344-.822-1.546 0-1.89l9.32-3.892c.254-.105.539-.105.792 0l9.32 3.894c.823.343.823 1.545 0 1.889l-9.32 3.893c-.127.053-.392.148-.792 0zm-6.267-4.838L31 22.7l6.664-2.783L31 17.134l-6.663 2.783zm2.492 12.346h12.718v2.048H26.829zm-4.376 0h2.325v2.048h-2.325zm4.376 4.027h12.718v2.048H26.829zm-4.376 0h2.325v2.048h-2.325z"/></g></g></svg>