<svg xmlns="http://www.w3.org/2000/svg" width="62" height="62"><g fill="none" fill-rule="evenodd"><circle cx="31" cy="31" r="30" fill="#FFF" stroke="#00A84E" stroke-width="2"/><path fill="#009CDE" fill-rule="nonzero" d="M35.938 20.816C33.731 18.566 31.626 16.42 31 14c-.627 2.42-2.733 4.565-4.939 6.816C22.752 24.191 19 28.016 19 33.754c0 4.375 2.287 8.418 6 10.605a11.79 11.79 0 0012 0c3.713-2.187 6-6.23 6-10.605 0-5.737-3.752-9.563-7.062-12.938M24.1 36.607c-.735-.025-3.45-4.802 1.587-9.888l3.333 3.716a.295.295 0 01-.022.434c-.795.833-4.186 4.303-4.607 5.503-.087.247-.214.238-.29.235M31 42.903c-1.095 0-2.144-.444-2.918-1.234s-1.21-1.861-1.21-2.978a4.446 4.446 0 011.03-2.782c.744-.929 3.097-3.54 3.097-3.54s2.318 2.65 3.093 3.531a4.164 4.164 0 011.035 2.79c0 2.327-1.848 4.213-4.127 4.213m7.9-6.83c-.09.198-.291.53-.564.54-.485.018-.537-.236-.896-.778-.788-1.19-7.662-8.522-8.948-9.94-1.131-1.247-.16-2.127.291-2.588L31 21.046s4.922 4.766 6.972 8.022c2.05 3.257 1.344 6.075.927 7.005"/></g></svg>