<svg xmlns="http://www.w3.org/2000/svg" xmlns:xlink="http://www.w3.org/1999/xlink" width="41" height="47"><defs><path id="b" d="M867.542 1167.43a1.47 1.47 0 010 2.07l-2.057 2.07a1.448 1.448 0 01-2.057 0 1.47 1.47 0 010-2.07l2.057-2.07a1.449 1.449 0 012.057 0z"/><path id="g" d="M892.664 1140.015c.05-.079.105-.153.153-.235 2.403-4.13 1.061-9.363-2.996-11.687-4.058-2.325-9.295-.862-11.698 3.269-.047.081-.084.165-.128.248 0 0 4.387.94 7.907 2.957 3.804 2.18 6.762 5.448 6.762 5.448z"/><path id="c" d="M883.458 1167.427a1.455 1.455 0 000 2.057l2.057 2.058a1.454 1.454 0 102.057-2.058l-2.057-2.057a1.455 1.455 0 00-2.057 0z"/><path id="d" d="M875.484 1145.996c.815 0 1.475.625 1.475 1.397v3.63h6.56a1.48 1.48 0 011.475 1.482c0 .82-.66 1.483-1.475 1.483h-8.035c-.814 0-1.475-.624-1.475-1.396l.001-.042v-5.157c0-.772.66-1.397 1.474-1.397z"/><path id="f" d="M858.336 1140.015c-.05-.079-.105-.153-.153-.235-2.403-4.13-1.061-9.363 2.996-11.687 4.058-2.325 9.295-.862 11.698 3.269.048.081.084.165.128.248 0 0-4.387.94-7.907 2.957-3.804 2.18-6.762 5.448-6.762 5.448z"/><path id="a" d="M875.5 1135c9.665 0 17.5 7.835 17.5 17.5s-7.835 17.5-17.5 17.5-17.5-7.835-17.5-17.5 7.835-17.5 17.5-17.5z"/><path id="k" d="M875.484 1145.996c.815 0 1.475.625 1.475 1.397v3.63h6.56a1.48 1.48 0 011.475 1.482c0 .82-.66 1.483-1.475 1.483h-8.035c-.814 0-1.475-.624-1.475-1.396l.001-.042v-5.157c0-.772.66-1.397 1.474-1.397z"/><clipPath id="e"><use fill="#fff" xlink:href="#a"/></clipPath><clipPath id="h"><use fill="#fff" xlink:href="#b"/></clipPath><clipPath id="i"><use fill="#fff" xlink:href="#c"/></clipPath><clipPath id="j"><use fill="#fff" xlink:href="#d"/></clipPath></defs><use fill="#fff" fill-opacity="0" stroke="#267df4" stroke-miterlimit="50" stroke-width="6" clip-path="url(&quot;#e&quot;)" xlink:href="#a" transform="translate(-855 -1125)"/><use fill="#fff" fill-opacity="0" stroke="#267df4" stroke-miterlimit="50" stroke-width="3" xlink:href="#f" transform="translate(-855 -1125)"/><use fill="#fff" fill-opacity="0" stroke="#267df4" stroke-miterlimit="50" stroke-width="3" xlink:href="#g" transform="translate(-855 -1125)"/><use fill="#fff" fill-opacity="0" stroke="#267df4" stroke-miterlimit="50" stroke-width="6" clip-path="url(&quot;#h&quot;)" xlink:href="#b" transform="translate(-855 -1125)"/><use fill="#fff" fill-opacity="0" stroke="#267df4" stroke-miterlimit="50" stroke-width="6" clip-path="url(&quot;#i&quot;)" xlink:href="#c" transform="translate(-855 -1125)"/><use fill="#fff" fill-opacity="0" stroke="#267df4" stroke-miterlimit="50" stroke-width="6" clip-path="url(&quot;#j&quot;)" xlink:href="#k" transform="translate(-855 -1125)"/></svg>