<svg xmlns="http://www.w3.org/2000/svg" xmlns:xlink="http://www.w3.org/1999/xlink" width="42" height="51"><defs><clipPath id="e"><use fill="#fff" xlink:href="#a"/></clipPath><clipPath id="f"><use fill="#fff" xlink:href="#b"/></clipPath><clipPath id="g"><use fill="#fff" xlink:href="#c"/></clipPath><clipPath id="h"><use fill="#fff" xlink:href="#d"/></clipPath><path id="a" d="M255 1146a4 4 0 014-4h34a4 4 0 014 4v23a4 4 0 01-4 4h-34a4 4 0 01-4-4z"/><path id="b" d="M275 1122h2c8.284 0 15 6.715 15 15v8h-32v-8c0-8.285 6.716-15 15-15z"/><path id="c" d="M276 1127c6.075 0 11 4.925 11 11v7h-22v-7c0-6.075 4.925-11 11-11z"/><path id="d" d="M268.575 1155.354a1.5 1.5 0 012.122 0l3.889 3.888 6.717-6.717a1.5 1.5 0 012.122 2.121l-7.778 7.778a1.5 1.5 0 01-2.122 0l-4.95-4.949a1.5 1.5 0 010-2.121z"/></defs><use fill="#fff" fill-opacity="0" stroke="#267df4" stroke-miterlimit="50" stroke-width="6" clip-path="url(&quot;#e&quot;)" xlink:href="#a" transform="translate(-255 -1122)"/><use fill="#fff" fill-opacity="0" stroke="#267df4" stroke-miterlimit="50" stroke-width="6" clip-path="url(&quot;#f&quot;)" xlink:href="#b" transform="translate(-255 -1122)"/><use fill="#fff" fill-opacity="0" stroke="#267df4" stroke-miterlimit="50" stroke-width="6" clip-path="url(&quot;#g&quot;)" xlink:href="#c" transform="translate(-255 -1122)"/><use fill="#fff" fill-opacity="0" stroke="#267df4" stroke-miterlimit="50" stroke-width="6" clip-path="url(&quot;#h&quot;)" xlink:href="#d" transform="translate(-255 -1122)"/></svg>