<svg xmlns="http://www.w3.org/2000/svg" xmlns:xlink="http://www.w3.org/1999/xlink" width="140" height="12"><defs><path id="a" d="M737.855 72.77l-4.56-7.408h-.048l.064 7.407h-2.656V61.441h3.12l4.544 7.392h.048l-.064-7.392h2.656V72.77zm5.44 0V61.44h7.616v2.305h-4.976v2.144h4.704v2.191h-4.704v2.353h5.264v2.335zm21.712 0h-2.704l-2.24-7.664h-.048l-2.24 7.663h-2.72l-3.216-11.328h2.944l1.792 7.536h.048l2.016-7.536h2.848l2.032 7.536h.048l1.824-7.536h2.848zm4.608-11.329h3.456a7.01 7.01 0 011.664.185c.5.122.928.311 1.28.568.352.256.624.581.816.976.192.394.288.869.288 1.423 0 .566-.104 1.051-.312 1.456a2.673 2.673 0 01-.864.993 3.864 3.864 0 01-1.312.568 6.967 6.967 0 01-1.64.183h-1.792v4.976h-1.584zm1.584 5.008h1.68c.384 0 .738-.034 1.064-.104a2.64 2.64 0 00.84-.32 1.5 1.5 0 00.544-.567c.128-.235.192-.523.192-.865 0-.341-.067-.626-.2-.856a1.605 1.605 0 00-.544-.56 2.324 2.324 0 00-.824-.303 5.766 5.766 0 00-1.04-.088h-1.712zm9.52 6.32h-1.585V61.441h3.632c.544 0 1.062.056 1.552.168.49.113.92.291 1.288.536.368.246.659.569.872.968.214.4.32.888.32 1.464 0 .832-.256 1.504-.768 2.017-.512.512-1.173.837-1.984.975l3.168 5.2h-1.92l-2.88-5.04h-1.696zm0-6.367h1.823a5.3 5.3 0 001.04-.096c.32-.065.6-.168.84-.312s.43-.331.568-.56c.139-.23.208-.515.208-.857 0-.34-.07-.626-.208-.856a1.607 1.607 0 00-.552-.551 2.415 2.415 0 00-.808-.296 5.227 5.227 0 00-.976-.088h-1.936zm19.663.687c0 .875-.152 1.678-.456 2.409a5.71 5.71 0 01-1.256 1.888 5.635 5.635 0 01-1.904 1.231 6.416 6.416 0 01-2.4.44 6.353 6.353 0 01-2.392-.44 5.649 5.649 0 01-1.896-1.231 5.604 5.604 0 01-1.248-1.888c-.298-.73-.448-1.534-.448-2.409 0-.885.15-1.693.448-2.424a5.436 5.436 0 011.248-1.872 5.676 5.676 0 011.896-1.208 6.46 6.46 0 012.392-.431c.864 0 1.664.143 2.4.431.736.288 1.37.691 1.904 1.208a5.537 5.537 0 011.256 1.872c.304.731.456 1.54.456 2.424zm-1.712 0c0-.618-.101-1.202-.304-1.752a4.455 4.455 0 00-.864-1.448 4.042 4.042 0 00-1.352-.983c-.528-.24-1.122-.36-1.784-.36-.65 0-1.24.12-1.768.36s-.976.568-1.344.983a4.525 4.525 0 00-.856 1.448 5.02 5.02 0 00-.304 1.752c0 .63.102 1.222.304 1.777.203.554.49 1.037.864 1.447.374.411.822.734 1.344.969.523.234 1.11.351 1.76.351.65 0 1.243-.117 1.776-.351a3.983 3.983 0 001.36-.969 4.34 4.34 0 00.864-1.447 5.14 5.14 0 00.304-1.777zm7.44 3.632h.048l3.408-9.28h1.712L806.83 72.77h-1.472l-4.416-11.328h1.76zm8.096 2.048h-1.584V61.441h1.584zm2.752-11.328h3.888c.726 0 1.45.107 2.176.32.726.214 1.382.55 1.968 1.009a5.168 5.168 0 011.424 1.76c.363.714.544 1.573.544 2.576 0 .97-.181 1.81-.544 2.52a5.263 5.263 0 01-1.424 1.76 6.12 6.12 0 01-1.968 1.04 7.18 7.18 0 01-2.176.343h-3.888zm1.584 9.937h1.984c.683 0 1.315-.096 1.896-.289a4.376 4.376 0 001.504-.832c.422-.362.75-.81.984-1.343.235-.534.352-1.136.352-1.808 0-.704-.117-1.323-.352-1.856a3.646 3.646 0 00-.984-1.336 4.346 4.346 0 00-1.504-.816 6.169 6.169 0 00-1.896-.28h-1.984zm12.176-.017h5.92v1.408h-7.504V61.441h7.264v1.393h-5.68v3.391h5.344v1.36h-5.344zm16.016-.864h.032v-9.056h1.584V72.77h-2l-5.984-9.248h-.032v9.248h-1.584V61.441h2.064zm14.08.513a5.09 5.09 0 01-1.744 1.48c-.715.378-1.574.568-2.576.568a6.354 6.354 0 01-2.392-.44 5.564 5.564 0 01-1.888-1.232 5.67 5.67 0 01-1.24-1.888c-.299-.73-.448-1.534-.448-2.409 0-.885.152-1.693.456-2.424a5.477 5.477 0 011.264-1.872 5.747 5.747 0 011.912-1.208 6.525 6.525 0 012.4-.431 6.3 6.3 0 011.168.112c.394.074.773.186 1.136.335.362.15.693.334.992.553.298.218.554.471.768.76l-1.248.96c-.278-.385-.67-.702-1.176-.953a3.65 3.65 0 00-1.64-.375c-.662 0-1.256.12-1.784.36s-.979.568-1.352.983a4.446 4.446 0 00-.864 1.448 5.02 5.02 0 00-.304 1.752c0 .64.098 1.238.296 1.792a4.3 4.3 0 00.848 1.448 3.9 3.9 0 001.344.968 4.301 4.301 0 001.768.353 3.9 3.9 0 001.744-.385 3.354 3.354 0 001.296-1.12zm3.2.351h5.92v1.408h-7.504V61.441h7.264v1.393h-5.68v3.391h5.344v1.36h-5.344z"/></defs><use fill="#26272d" xlink:href="#a" transform="translate(-730 -61)"/></svg>