<svg xmlns="http://www.w3.org/2000/svg" width="45" height="45" viewBox="0 0 45 45">
    <g fill="none" fill-rule="evenodd">
        <g>
            <g>
                <g>
                    <path fill="#00A84E" fill-rule="nonzero" d="M3.159 12.41L21.55 3.87c.776-.36 1.67-.36 2.446 0l18.394 8.537c.748.347 1.236 1.088 1.26 1.913.024.825-.42 1.592-1.148 1.982L24.145 26.14c-.857.459-1.885.459-2.741 0L3.047 16.304c-.728-.39-1.172-1.157-1.149-1.982.024-.825.512-1.565 1.26-1.912zm2.54 2.022l17.075 9.148 17.076-9.148-17.076-7.928L5.7 14.43v.002zm-3.934 6.99c-.685-.389-.935-1.253-.562-1.948.372-.694 1.23-.965 1.934-.61l19.637 10.522 19.638-10.52c.458-.265 1.025-.26 1.478.015.454.275.721.774.699 1.304-.023.53-.332 1.004-.807 1.239L24.145 31.947c-.857.458-1.885.458-2.741 0L1.766 21.423h-.001zm0 5.807c-.685-.39-.935-1.254-.562-1.948.372-.695 1.23-.965 1.934-.61l19.637 10.522 19.638-10.52c.458-.266 1.025-.26 1.478.015.454.274.721.774.699 1.303-.023.53-.332 1.005-.807 1.24L24.145 37.752c-.857.459-1.885.459-2.741 0L1.766 27.23h-.001zm0 5.806c-.685-.389-.935-1.253-.562-1.948.372-.694 1.23-.965 1.934-.61L22.774 41l19.638-10.52c.458-.265 1.025-.26 1.478.015.454.275.721.774.699 1.304-.023.529-.332 1.004-.807 1.239L24.145 43.56c-.857.458-1.885.458-2.741 0L1.766 33.035h-.001z" transform="translate(-954 -1246) translate(928 1216) translate(26 30)"/>
                </g>
            </g>
        </g>
    </g>
</svg>
