<svg xmlns="http://www.w3.org/2000/svg" width="45" height="45" viewBox="0 0 45 45">
    <g fill="none" fill-rule="evenodd">
        <g fill-rule="nonzero">
            <g>
                <g>
                    <path fill="#00A84E" d="M6 2.935h33c3.314 0 6 2.628 6 5.87v23.478c0 3.241-2.686 5.87-6 5.87H6c-3.314 0-6-2.629-6-5.87V8.804c0-3.241 2.686-5.87 6-5.87zM6 5.87c-1.657 0-3 1.314-3 2.934v23.479c0 1.62 1.343 2.934 3 2.934h33c1.657 0 3-1.314 3-2.934V8.804c0-1.62-1.343-2.934-3-2.934H6zm9 36.684c-.828 0-1.5-.657-1.5-1.467s.672-1.467 1.5-1.467h15c.828 0 1.5.657 1.5 1.467s-.672 1.467-1.5 1.467H15z" transform="translate(-186 -1246) translate(160 1216) translate(26 30)"/>
                </g>
            </g>
        </g>
    </g>
</svg>
