<svg xmlns="http://www.w3.org/2000/svg" width="45" height="45" viewBox="0 0 45 45">
    <g fill="none" fill-rule="evenodd">
        <g fill="#00A84E">
            <g>
                <g>
                    <path fill-rule="nonzero" d="M42 20.222v-6.074c0-1.677-1.343-3.037-3-3.037H6c-1.657 0-3 1.36-3 3.037v6.074h39zm0 3.037H3v13.667c0 1.677 1.343 3.037 3 3.037h33c1.657 0 3-1.36 3-3.037V23.259zM15.15 8.074C15.845 4.608 18.872 2 22.5 2c3.628 0 6.655 2.608 7.35 6.074H39c3.314 0 6 2.72 6 6.074v22.778C45 40.28 42.314 43 39 43H6c-3.314 0-6-2.72-6-6.074V14.148c0-3.354 2.686-6.074 6-6.074h9.15zm3.106 0h8.488c-.618-1.77-2.285-3.037-4.244-3.037-1.96 0-3.626 1.268-4.244 3.037z" transform="translate(-954 -982) translate(928 952) translate(26 30)"/>
                </g>
            </g>
        </g>
    </g>
</svg>
