<svg xmlns="http://www.w3.org/2000/svg" width="45" height="45" viewBox="0 0 45 45">
    <g fill="none" fill-rule="evenodd">
        <g>
            <g>
                <g>
                    <path fill="#00A84E" fill-rule="nonzero" d="M10.76 0h23.48c3.24 0 5.869 2.686 5.869 6v33c0 3.314-2.628 6-5.87 6H10.761c-3.242 0-5.87-2.686-5.87-6V6c0-3.314 2.628-6 5.87-6zm0 3C9.14 3 7.827 4.343 7.827 6v33c0 1.657 1.314 3 2.935 3h23.478c1.621 0 2.935-1.343 2.935-3V6c0-1.657-1.314-3-2.935-3H10.761zM22.5 39c-1.216 0-2.201-1.007-2.201-2.25s.985-2.25 2.201-2.25c1.216 0 2.201 1.007 2.201 2.25S23.716 39 22.5 39z" transform="translate(-570 -1246) translate(544 1216) translate(26 30)"/>
                </g>
            </g>
        </g>
    </g>
</svg>
