<svg xmlns="http://www.w3.org/2000/svg" width="45" height="45" viewBox="0 0 45 45">
    <g fill="none" fill-rule="evenodd">
        <g>
            <g>
                <g>
                    <path fill="#00A84E" d="M12.927 27.5H18v-9h-7.5c-.828 0-1.5-.672-1.5-1.5s.672-1.5 1.5-1.5H18V8H3v30h15v-7.5h-5.073l.415.83c.37.74.07 1.641-.671 2.012-.741.37-1.642.07-2.013-.671l-1.486-2.973c-.01-.019-.02-.037-.028-.056L8.823 29l.32-.642.029-.056 1.486-2.973c.37-.74 1.272-1.041 2.013-.67.74.37 1.041 1.27.67 2.012l-.414.829zM27 30.5V38h15V8H27v7.5h5.073l-.415-.83c-.37-.74-.07-1.641.671-2.012.741-.37 1.642-.07 2.013.671l1.486 2.973c.01.019.02.037.028.056l.321.642-.32.642-.029.056-1.486 2.973c-.37.74-1.272 1.041-2.013.67-.74-.37-1.041-1.27-.67-2.012l.414-.829H27v9h7.5c.828 0 1.5.672 1.5 1.5s-.672 1.5-1.5 1.5H27zm-6 0V38c0 1.657-1.343 3-3 3H3c-1.657 0-3-1.343-3-3V8c0-1.657 1.343-3 3-3h15c1.657 0 3 1.343 3 3v7.5h3V8c0-1.657 1.343-3 3-3h15c1.657 0 3 1.343 3 3v30c0 1.657-1.343 3-3 3H27c-1.657 0-3-1.343-3-3v-7.5h-3zm0-3h3v-9h-3v9z" transform="translate(-954 -1518) translate(928 1488) translate(26 30)"/>
                </g>
            </g>
        </g>
    </g>
</svg>
