<svg xmlns="http://www.w3.org/2000/svg" width="45" height="45" viewBox="0 0 45 45">
    <g fill="none" fill-rule="evenodd">
        <g>
            <g>
                <g>
                    <path fill="#00A84E" fill-rule="nonzero" d="M6 10.5c-1.608 0-3.093-.858-3.897-2.25-.804-1.392-.804-3.108 0-4.5S4.393 1.5 6 1.5c2.485 0 4.5 2.015 4.5 4.5S8.485 10.5 6 10.5zm0-3c.828 0 1.5-.672 1.5-1.5S6.828 4.5 6 4.5 4.5 5.172 4.5 6 5.172 7.5 6 7.5zm33 3c-1.608 0-3.093-.858-3.897-2.25-.804-1.392-.804-3.108 0-4.5S37.393 1.5 39 1.5c2.485 0 4.5 2.015 4.5 4.5s-2.015 4.5-4.5 4.5zm0-3c.828 0 1.5-.672 1.5-1.5s-.672-1.5-1.5-1.5-1.5.672-1.5 1.5.672 1.5 1.5 1.5zm-16.5 3c-1.608 0-3.093-.858-3.897-2.25-.804-1.392-.804-3.108 0-4.5S20.893 1.5 22.5 1.5C24.985 1.5 27 3.515 27 6s-2.015 4.5-4.5 4.5zm0-3c.828 0 1.5-.672 1.5-1.5s-.672-1.5-1.5-1.5S21 5.172 21 6s.672 1.5 1.5 1.5zM6 43.5c-2.485 0-4.5-2.015-4.5-4.5s2.015-4.5 4.5-4.5 4.5 2.015 4.5 4.5-2.015 4.5-4.5 4.5zm0-3c.828 0 1.5-.672 1.5-1.5s-.672-1.5-1.5-1.5-1.5.672-1.5 1.5.672 1.5 1.5 1.5zm33 3c-2.485 0-4.5-2.015-4.5-4.5s2.015-4.5 4.5-4.5 4.5 2.015 4.5 4.5-2.015 4.5-4.5 4.5zm0-3c.828 0 1.5-.672 1.5-1.5s-.672-1.5-1.5-1.5-1.5.672-1.5 1.5.672 1.5 1.5 1.5zm-16.5 3c-2.485 0-4.5-2.015-4.5-4.5s2.015-4.5 4.5-4.5S27 36.515 27 39s-2.015 4.5-4.5 4.5zm0-3c.828 0 1.5-.672 1.5-1.5s-.672-1.5-1.5-1.5-1.5.672-1.5 1.5.672 1.5 1.5 1.5zM6 27c-2.485 0-4.5-2.015-4.5-4.5S3.515 18 6 18s4.5 2.015 4.5 4.5S8.485 27 6 27zm0-3c.828 0 1.5-.672 1.5-1.5S6.828 21 6 21s-1.5.672-1.5 1.5S5.172 24 6 24zm33 3c-2.485 0-4.5-2.015-4.5-4.5S36.515 18 39 18s4.5 2.015 4.5 4.5S41.485 27 39 27zm0-3c.828 0 1.5-.672 1.5-1.5S39.828 21 39 21s-1.5.672-1.5 1.5.672 1.5 1.5 1.5zm-16.5 3c-2.485 0-4.5-2.015-4.5-4.5s2.015-4.5 4.5-4.5 4.5 2.015 4.5 4.5-2.015 4.5-4.5 4.5zm0-3c.828 0 1.5-.672 1.5-1.5s-.672-1.5-1.5-1.5-1.5.672-1.5 1.5.672 1.5 1.5 1.5z" transform="translate(-570 -982) translate(544 952) translate(26 30)"/>
                </g>
            </g>
        </g>
    </g>
</svg>
