<svg xmlns="http://www.w3.org/2000/svg" width="45" height="45" viewBox="0 0 45 45">
    <g fill="none" fill-rule="evenodd">
        <g>
            <g>
                <g>
                    <path fill="#00A84E" d="M8.25 21C3.694 21 0 17.306 0 12.75S3.694 4.5 8.25 4.5s8.25 3.694 8.25 8.25S12.806 21 8.25 21zm0-3c2.9 0 5.25-2.35 5.25-5.25S11.15 7.5 8.25 7.5 3 9.85 3 12.75 5.35 18 8.25 18zm0 22.5C3.694 40.5 0 36.806 0 32.25S3.694 24 8.25 24s8.25 3.694 8.25 8.25-3.694 8.25-8.25 8.25zm0-3c2.9 0 5.25-2.35 5.25-5.25S11.15 27 8.25 27 3 29.35 3 32.25s2.35 5.25 5.25 5.25zm14.25-30c-.828 0-1.5-.672-1.5-1.5s.672-1.5 1.5-1.5h21c.828 0 1.5.672 1.5 1.5s-.672 1.5-1.5 1.5h-21zm0 6c-.828 0-1.5-.672-1.5-1.5s.672-1.5 1.5-1.5h21c.828 0 1.5.672 1.5 1.5s-.672 1.5-1.5 1.5h-21zm0 6c-.828 0-1.5-.672-1.5-1.5s.672-1.5 1.5-1.5H33c.828 0 1.5.672 1.5 1.5s-.672 1.5-1.5 1.5H22.5zm0 9c-.828 0-1.5-.672-1.5-1.5s.672-1.5 1.5-1.5h21c.828 0 1.5.672 1.5 1.5s-.672 1.5-1.5 1.5h-21zm0 6c-.828 0-1.5-.672-1.5-1.5s.672-1.5 1.5-1.5h21c.828 0 1.5.672 1.5 1.5s-.672 1.5-1.5 1.5h-21zm0 6c-.828 0-1.5-.672-1.5-1.5s.672-1.5 1.5-1.5H33c.828 0 1.5.672 1.5 1.5s-.672 1.5-1.5 1.5H22.5z" transform="translate(-570 -1518) translate(544 1488) translate(26 30)"/>
                </g>
            </g>
        </g>
    </g>
</svg>
