<svg xmlns="http://www.w3.org/2000/svg" width="45" height="45" viewBox="0 0 45 45">
    <g fill="none" fill-rule="evenodd">
        <g fill="#00A84E">
            <g>
                <g>
                    <path d="M36 19V8.5c0-1.657-1.343-3-3-3H6c-1.657 0-3 1.343-3 3v24c0 1.657 1.343 3 3 3h24v-12c0-2.485 2.015-4.5 4.5-4.5H36zm3 0h1.5c2.485 0 4.5 2.015 4.5 4.5v15c0 2.485-2.015 4.5-4.5 4.5h-6c-2.485 0-4.5-2.015-4.5-4.5H6c-3.314 0-6-2.686-6-6v-24c0-3.314 2.686-6 6-6h27c3.314 0 6 2.686 6 6V19zm-4.5 3c-.828 0-1.5.672-1.5 1.5v15c0 .828.672 1.5 1.5 1.5h6c.828 0 1.5-.672 1.5-1.5v-15c0-.828-.672-1.5-1.5-1.5h-6zm-21 21c-.828 0-1.5-.672-1.5-1.5s.672-1.5 1.5-1.5h12c.828 0 1.5.672 1.5 1.5s-.672 1.5-1.5 1.5h-12z" transform="translate(-186 -1518) translate(160 1488) translate(26 30)"/>
                </g>
            </g>
        </g>
    </g>
</svg>
