<svg xmlns="http://www.w3.org/2000/svg" width="118" height="40" viewBox="0 0 118 40">
    <g fill="none" fill-rule="evenodd">
        <g>
            <g>
                <path fill="#FFF" fill-rule="nonzero" d="M56.336 32c2.356 0 3.534-1.115 3.534-3.344v-17.1c0-2.23-1.178-3.344-3.534-3.344h-8.284V32h8.284zm-1.064-2.698H51.51V10.91h3.762c.456 0 .76.07.912.209.152.14.228.437.228.893V28.2c0 .456-.076.754-.228.893-.152.14-.456.209-.912.209zM75.396 32c2.381 0 3.572-1.115 3.572-3.344v-6.84c0-2.23-1.165-3.344-3.496-3.344h-2.774c-.456 0-.76-.07-.912-.209-.152-.14-.228-.437-.228-.893v-5.282c0-.456.076-.754.228-.893.152-.14.456-.209.912-.209h1.596c.456 0 .76.07.912.209.152.14.228.437.228.893v2.964h3.458v-3.496c0-2.23-1.178-3.344-3.534-3.344h-3.724c-2.356 0-3.534 1.115-3.534 3.344v6.27c0 2.255 1.153 3.382 3.458 3.382h2.812c.456 0 .754.07.893.209.14.14.209.437.209.893v5.814c0 .456-.07.754-.209.893-.14.14-.437.209-.893.209h-1.596c-.456 0-.76-.07-.912-.209-.152-.14-.228-.437-.228-.893V25.16h-3.458v3.496c0 2.23 1.178 3.344 3.534 3.344h3.686zm15.374 0v-9.614h1.862L96.204 32h3.686l-3.762-9.69c1.697-.279 2.546-1.38 2.546-3.306v-7.448c0-2.23-1.178-3.344-3.534-3.344h-7.79V32h3.42zm3.344-12.35H90.77v-8.664h3.344c.456 0 .76.07.912.209.152.14.228.437.228.893v6.46c0 .456-.076.754-.228.893-.152.14-.456.209-.912.209zM113.022 32V10.986h3.99V8.212h-11.4v2.774h3.99V32h3.42z" transform="translate(-160 -41) translate(160 41)"/>
                <path fill="#F25022" d="M35 30V10L17.5 0 0 10v20l17.5 10L35 30zM7.609 14.15L17.88 8.303l10.272 5.849v11.698L17.88 31.7 7.61 25.848V14.151zM17.88 25.66l-4.945-2.83v-5.66l4.945-2.83 4.946 2.83v5.66l-4.946 2.83z" transform="translate(-160 -41) translate(160 41)"/>
            </g>
        </g>
    </g>
</svg>
