<svg xmlns="http://www.w3.org/2000/svg" width="24" height="24" viewBox="0 0 24 24">
    <g fill="none" fill-rule="evenodd">
        <g>
            <g>
                <g>
                    <path d="M0 0L24 0 24 24 0 24z" transform="translate(-275 -52) translate(-602 -5) translate(877 57)"/>
                    <path fill="#FFF" fill-rule="nonzero" d="M11.33 8.86l-.712.713c-.394.393-.393 1.032.003 1.427l2.373 2.372c.398.398 1.035.396 1.43.002l.712-.711c.263-.263.69-.264.953-.001l2.615 2.613c.394.394.396 1.03-.002 1.428l-1.426 1.425c-.919.918-2.586 1.16-3.702.492 0 0-1.786-.75-4.604-3.566-2.817-2.814-3.596-4.633-3.596-4.633-.65-1.125-.43-2.783.486-3.699l1.426-1.424c.396-.395 1.033-.399 1.43-.002l2.615 2.613c.263.262.264.688 0 .952zM6.813 7.674c-.487.486-.57 1.46-.273 2.077 0 0 .475.861.69 1.178.636.937 1.52 2.004 2.693 3.176 1.172 1.172 2.233 2.05 3.16 2.676.313.211 1.183.687 1.183.687.563.294 1.564.205 2.06-.29l1.19-1.189-1.902-1.9-.238.237c-.92.92-2.41.919-3.332-.002L9.669 11.95c-.92-.92-.922-2.41-.002-3.329l.238-.238-1.903-1.9-1.19 1.189z" transform="translate(-275 -52) translate(-602 -5) translate(877 57)"/>
                </g>
            </g>
        </g>
    </g>
</svg>
