<svg xmlns="http://www.w3.org/2000/svg" width="62" height="62" viewBox="0 0 62 62">
    <g fill="none" fill-rule="evenodd">
        <g>
            <g>
                <g>
                    <g transform="translate(-1068 -4672) translate(-3 4504) translate(929 168) translate(142)">
                        <circle cx="31" cy="31" r="30" fill="#FFF" stroke="#00A84E" stroke-width="2"/>
                        <g fill-rule="nonzero">
                            <path fill="#F96232" d="M13.425 18.612l.224.224c.39.39.896.646 1.447.723 1.836.262 2.559 2.61 1.202 3.863-1.305 1.203-3.487.416-3.736-1.33-.077-.55-.333-1.056-.723-1.446l-.225-.224-2.936 2.93-3.155-3.154-1.356-1.356-.454-.454-1.357-1.356L1 15.676 8.678 8l2.936 2.936-.23.224c-.39.39-.895.646-1.446.723-1.746.25-2.534 2.43-1.33 3.735 1.253 1.357 3.601.627 3.864-1.202.076-.55.333-1.056.723-1.446l.224-.23 2.936 2.936-2.93 2.936z" transform="translate(15 15)"/>
                            <path fill="#43D3E8" d="M31 16.324L23.322 24l-2.937-2.936.23-.224c.39-.39.896-.646 1.447-.723 1.746-.25 2.533-2.43 1.33-3.735-1.254-1.357-3.602-.627-3.864 1.202-.077.55-.334 1.056-.723 1.446l-.225.23-2.936-2.936 2.937-2.936-.23-.224c-.39-.39-.896-.646-1.446-.723-1.837-.262-2.56-2.61-1.203-3.863 1.305-1.203 3.487-.416 3.736 1.33.077.55.334 1.056.723 1.446l.225.23 2.936-2.936 3.154 3.154 1.357 1.356.454.454 1.357 1.356L31 16.324z" transform="translate(15 15)"/>
                            <g fill="#383838">
                                <path d="M26.835 12.115c-.164 0-.328-.063-.453-.188l-3.154-3.155c-.25-.25-.25-.654 0-.904s.654-.25.904 0l3.155 3.154c.25.25.25.655 0 .905-.125.125-.289.188-.452.188zM28.645 13.924c-.164 0-.328-.062-.452-.186l-.453-.453c-.25-.25-.25-.655-.001-.905.25-.25.655-.25.905 0l.454.452c.25.25.25.655 0 .905-.125.125-.289.187-.453.187zM31.36 16.64c-.164 0-.328-.063-.452-.188l-1.358-1.357c-.25-.25-.25-.655 0-.905s.655-.25.905 0l1.357 1.358c.25.25.25.654 0 .904-.124.125-.288.188-.452.188z" transform="translate(15 15)"/>
                                <path d="M23.68 8.96c-.164 0-.328-.063-.452-.188l-7.68-7.68c-.25-.25-.25-.654 0-.904s.654-.25.904 0l7.68 7.68c.25.25.25.654 0 .904-.124.125-.288.188-.452.188zM8.32 8.96c-.164 0-.328-.063-.452-.188-.25-.25-.25-.654 0-.904l3.154-3.155c.25-.25.655-.25.905 0s.25.655 0 .905L8.772 8.772c-.124.125-.288.188-.452.188zM12.832 4.448c-.164 0-.328-.063-.453-.188-.25-.25-.25-.655 0-.904l.454-.453c.25-.25.655-.25.905 0s.25.656 0 .906l-.454.452c-.124.124-.288.187-.452.187z" transform="translate(15 15)"/>
                                <path d="M14.643 2.637c-.164 0-.328-.062-.453-.187-.25-.25-.25-.655 0-.905L15.548.188c.25-.25.654-.25.904 0s.25.654 0 .904L15.095 2.45c-.125.125-.289.187-.452.187zM.64 16.64c-.164 0-.328-.063-.452-.188-.25-.25-.25-.654 0-.904l7.68-7.68c.25-.25.654-.25.904 0s.25.654 0 .904l-7.68 7.68c-.124.125-.288.188-.452.188zM8.32 24.32c-.164 0-.328-.063-.452-.188l-3.155-3.154c-.25-.25-.25-.655 0-.905s.655-.25.905 0l3.154 3.155c.25.25.25.654 0 .904-.124.125-.288.188-.452.188zM3.808 19.808c-.164 0-.328-.063-.452-.187l-.454-.452c-.25-.25-.25-.655 0-.905.25-.251.655-.25.905-.001l.453.453c.25.25.25.654.001.904-.125.125-.29.188-.453.188z" transform="translate(15 15)"/>
                                <path d="M1.997 17.997c-.163 0-.327-.062-.452-.187L.188 16.452c-.25-.25-.25-.654 0-.904s.654-.25.904 0l1.358 1.357c.25.25.25.655 0 .905-.125.125-.289.187-.453.187zM16 32c-.164 0-.328-.063-.452-.188l-7.68-7.68c-.25-.25-.25-.654 0-.904s.654-.25.904 0l7.68 7.68c.25.25.25.654 0 .904-.124.125-.288.188-.452.188zM20.525 27.475c-.163 0-.327-.063-.452-.188-.25-.25-.25-.655 0-.905l3.155-3.154c.25-.25.654-.25.904 0s.25.654 0 .904l-3.154 3.155c-.125.125-.289.188-.453.188zM18.715 29.284c-.164 0-.328-.062-.453-.187-.25-.25-.25-.655 0-.905l.454-.452c.25-.25.655-.25.905 0s.25.656 0 .905l-.454.453c-.124.124-.288.186-.452.186z" transform="translate(15 15)"/>
                                <path d="M16 32c-.164 0-.328-.063-.452-.188-.25-.25-.25-.654 0-.904l1.357-1.358c.25-.25.655-.25.905 0s.25.655 0 .905l-1.358 1.357c-.124.125-.288.188-.452.188zM20.745 21.385c-.164 0-.328-.063-.453-.188-.25-.25-.25-.654 0-.905l.227-.226c.25-.25.655-.25.905 0s.25.655 0 .905l-.227.226c-.124.125-.288.188-.452.188zM18.935 19.575c-.164 0-.328-.063-.452-.187-.25-.25-.25-.655 0-.905l.226-.227c.25-.25.655-.25.905 0s.25.655 0 .905l-.226.227c-.125.124-.29.187-.453.187zM22.419 20.435c-.314 0-.588-.23-.633-.55-.05-.35.193-.674.543-.723.584-.084 1.055-.478 1.26-1.056.206-.577.091-1.18-.308-1.612-.418-.452-1.031-.61-1.646-.42-.611.191-1.028.668-1.115 1.278-.05.35-.375.59-.725.543-.35-.05-.593-.374-.543-.724.157-1.094.924-1.983 2.003-2.318 1.082-.337 2.216-.04 2.967.774.716.777.936 1.892.574 2.909-.363 1.019-1.239 1.744-2.285 1.893-.032.004-.062.006-.092.006z" transform="translate(15 15)"/>
                                <path d="M18.935 19.575c-.164 0-.328-.063-.452-.187l-2.935-2.936c-.25-.25-.25-.654 0-.904s.654-.25.904 0l2.936 2.935c.25.25.25.654 0 .905-.125.124-.29.187-.453.187zM23.68 24.32c-.164 0-.328-.063-.452-.188-.25-.25-.25-.654 0-.904l7.68-7.68c.25-.25.654-.25.904 0s.25.654 0 .904l-7.68 7.68c-.124.125-.288.188-.452.188z" transform="translate(15 15)"/>
                                <path d="M23.68 24.32c-.164 0-.328-.063-.452-.188l-2.936-2.935c-.25-.25-.25-.654 0-.905.25-.25.655-.25.905 0l2.935 2.936c.25.25.25.654 0 .904-.124.125-.288.188-.452.188zM11.481 21.612c-.164 0-.328-.063-.453-.188l-.226-.227c-.25-.25-.25-.654 0-.905.25-.25.655-.25.905 0l.226.227c.25.25.25.655 0 .905-.124.125-.288.188-.452.188zM13.292 19.801c-.164 0-.328-.063-.453-.188l-.227-.226c-.25-.25-.25-.655 0-.905s.655-.25.905 0l.227.226c.25.25.25.655 0 .905-.125.126-.29.188-.452.188zM14.454 24.967c-.33 0-.664-.056-.988-.171-1.02-.363-1.745-1.239-1.895-2.286-.05-.35.193-.674.544-.724.35-.052.674.194.724.543.083.584.478 1.055 1.056 1.26.577.206 1.179.09 1.612-.308.453-.418.61-1.034.419-1.647-.19-.611-.668-1.028-1.277-1.115-.35-.05-.593-.374-.543-.724.05-.35.372-.593.724-.543 1.094.156 1.982.923 2.318 2.001.336 1.08.04 2.217-.774 2.968-.528.488-1.215.746-1.92.746z" transform="translate(15 15)"/>
                                <path d="M13.065 19.575c-.164 0-.328-.063-.453-.187-.25-.25-.25-.655 0-.905l2.936-2.935c.25-.25.654-.25.904 0s.25.654 0 .904l-2.935 2.936c-.124.124-.288.187-.452.187zM8.32 24.32c-.164 0-.328-.063-.452-.188-.25-.25-.25-.654 0-.904l2.935-2.936c.25-.25.654-.25.905 0 .25.25.25.655 0 .905l-2.936 2.935c-.124.125-.288.188-.452.188zM11.028 12.121c-.163 0-.327-.063-.452-.188-.25-.25-.25-.654 0-.905l.227-.226c.25-.25.654-.25.905 0 .25.25.25.655 0 .905l-.227.226c-.125.126-.289.188-.453.188zM12.839 13.932c-.164 0-.328-.063-.452-.188-.25-.25-.25-.655 0-.905l.226-.227c.25-.25.655-.25.905 0s.25.655 0 .905l-.226.227c-.126.125-.29.188-.453.188zM9.86 17.284c-.785 0-1.535-.318-2.081-.91-.717-.777-.937-1.891-.575-2.908.363-1.02 1.24-1.745 2.286-1.894.351-.05.674.193.724.543.05.35-.193.674-.543.723-.584.084-1.055.478-1.26 1.056-.206.577-.091 1.18.308 1.612.418.453 1.033.61 1.646.42.611-.191 1.028-.668 1.115-1.278.05-.35.372-.596.725-.543.35.05.593.374.543.724-.157 1.094-.924 1.983-2.003 2.318-.294.093-.592.137-.885.137z" transform="translate(15 15)"/>
                                <path d="M16 16.64c-.164 0-.328-.063-.452-.188l-2.936-2.935c-.25-.25-.25-.654 0-.905.25-.25.655-.25.905 0l2.935 2.936c.25.25.25.654 0 .904-.124.125-.288.188-.452.188zM11.255 11.895c-.164 0-.328-.063-.452-.187L7.868 8.772c-.25-.25-.25-.654 0-.904s.654-.25.904 0l2.936 2.935c.25.25.25.654 0 .905-.125.124-.29.187-.453.187zM20.745 11.895c-.164 0-.328-.063-.453-.187l-.226-.227c-.25-.25-.25-.655 0-.905s.655-.25.905 0l.226.227c.25.25.25.654 0 .905-.124.124-.288.187-.452.187zM18.935 13.705c-.164 0-.328-.063-.452-.188l-.227-.226c-.25-.25-.25-.655 0-.905s.655-.25.905 0l.227.226c.25.25.25.655 0 .905-.125.125-.29.188-.453.188zM17.261 12.755c-.03 0-.06-.002-.091-.007-1.094-.156-1.982-.923-2.318-2.001-.336-1.08-.04-2.217.774-2.968.776-.717 1.892-.936 2.908-.575 1.02.363 1.745 1.239 1.895 2.286.05.35-.193.674-.544.724-.352.05-.674-.194-.724-.543-.083-.584-.478-1.055-1.056-1.26-.576-.206-1.178-.09-1.612.308-.453.418-.61 1.034-.419 1.647.19.611.668 1.028 1.277 1.115.35.05.593.374.543.724-.045.32-.319.55-.633.55z" transform="translate(15 15)"/>
                                <path d="M16 16.64c-.164 0-.328-.063-.452-.188-.25-.25-.25-.654 0-.904l2.935-2.936c.25-.25.654-.25.905 0 .25.25.25.655 0 .905l-2.936 2.935c-.124.125-.288.188-.452.188zM20.745 11.895c-.164 0-.328-.063-.453-.187-.25-.25-.25-.655 0-.905l2.936-2.935c.25-.25.654-.25.904 0s.25.654 0 .904l-2.935 2.936c-.124.124-.288.187-.452.187z" transform="translate(15 15)"/>
                                <path d="M18.708 13.479c-.163 0-.327-.063-.452-.187-.292-.292-.678-.485-1.086-.543-.35-.05-.593-.374-.543-.724.05-.35.371-.596.724-.543.68.098 1.323.419 1.81.905.25.25.25.655 0 .906-.125.123-.289.186-.453.186zM20.519 11.668c-.164 0-.328-.062-.452-.187-.487-.486-.808-1.13-.905-1.81-.05-.35.194-.675.544-.724.34-.047.674.193.723.543.059.408.251.794.543 1.086.25.25.25.655 0 .905-.126.125-.29.187-.453.187zM12.116 15.38c-.03 0-.06-.003-.091-.007-.35-.05-.594-.374-.544-.724.097-.681.419-1.324.905-1.81.25-.25.655-.25.905 0s.25.654 0 .904c-.292.292-.485.678-.543 1.086-.045.32-.319.55-.632.55zM9.58 12.845c-.313 0-.587-.23-.633-.549-.05-.35.193-.674.544-.724.409-.058.794-.251 1.086-.543.25-.25.654-.25.905 0 .25.25.25.655 0 .906-.487.485-1.13.807-1.81.905-.032.003-.062.005-.092.005zM14.74 20.525c-.03 0-.061-.001-.092-.006-.68-.097-1.323-.419-1.81-.905-.25-.25-.25-.655 0-.906.25-.25.655-.25.905 0 .292.292.678.486 1.086.544.35.05.594.374.544.724-.046.319-.32.55-.633.55zM12.204 23.06c-.313 0-.587-.231-.633-.55-.058-.409-.25-.795-.543-1.087-.25-.25-.25-.654 0-.905.25-.25.655-.25.905 0 .487.487.808 1.13.905 1.811.05.35-.194.674-.544.724-.029.004-.06.006-.09.006zM19.161 19.348c-.164 0-.328-.062-.453-.187-.25-.25-.25-.655 0-.905.292-.292.485-.678.543-1.086.05-.35.373-.593.724-.543.35.05.594.373.544.723-.097.681-.419 1.325-.905 1.811-.125.125-.29.187-.453.187zM20.972 21.159c-.164 0-.328-.063-.453-.187-.25-.25-.25-.656 0-.906.487-.486 1.13-.808 1.81-.905.35-.053.675.193.724.543.05.35-.193.674-.543.724-.409.058-.794.251-1.086.543-.125.125-.29.188-.452.188z" transform="translate(15 15)"/>
                            </g>
                        </g>
                    </g>
                </g>
            </g>
        </g>
    </g>
</svg>
