<svg xmlns="http://www.w3.org/2000/svg" width="62" height="62" viewBox="0 0 62 62">
    <g fill="none" fill-rule="evenodd">
        <g>
            <g>
                <g>
                    <g>
                        <g transform="translate(-685 -5194) translate(-3 4504) translate(162 690) translate(384) translate(142)">
                            <circle cx="31" cy="31" r="30" fill="#FFF" stroke="#00A84E" stroke-width="2"/>
                            <g fill-rule="nonzero">
                                <g>
                                    <g>
                                        <path fill="#FFF" d="M25.573 18.294H0V1.396C0 .629.629.002 1.397.002h22.779c.768 0 1.397.627 1.397 1.394v16.898z" transform="translate(15 15) translate(0 9.07) translate(3.214 .955)"/>
                                        <path fill="#E6E7E8" d="M3.419.07H0v18.224h25.573v-4.368h-8.274C9.633 13.926 3.42 7.723 3.42.07z" transform="translate(15 15) translate(0 9.07) translate(3.214 .955)"/>
                                    </g>
                                    <g>
                                        <path fill="#FFF" d="M29.607 21.843H2.393c-.755 0-1.367-.605-1.367-1.358v-3.351H11.88l.704 1.706h6.818l.703-1.706h10.868v3.351c0 .753-.612 1.358-1.367 1.358z" transform="translate(15 15) translate(0 9.07)"/>
                                        <path fill="#3E4D6C" d="M30.974 16.11h-1.162V2.357c0-1.317-1.07-2.355-2.39-2.355h-2.328v2.047h2.329c.188 0 .338.12.338.308V16.11h-7.655c-.415 0-.79.25-.948.634l-.442 1.072h-5.444l-.443-1.072c-.158-.383-.532-.634-.948-.634H4.24V2.357c0-.188.158-.308.346-.308h2.39V.002h-2.39c-1.32 0-2.397 1.038-2.397 2.355V16.11H1.026C.459 16.11 0 16.597 0 17.163v3.328c0 1.316 1.074 2.376 2.393 2.376h27.214c1.32 0 2.393-1.06 2.393-2.376v-3.328c0-.566-.46-1.053-1.026-1.053zm-1.025 4.38c0 .188-.154.33-.342.33H2.393c-.188 0-.342-.142-.342-.33v-2.332h9.143l.443 1.072c.158.383.533.634.948.634h6.818c.415 0 .79-.251.948-.634l.442-1.072h9.156v2.333z" transform="translate(15 15) translate(0 9.07)"/>
                                    </g>
                                </g>
                                <g>
                                    <path fill="#0795FE" d="M17.162 13.329h.005c-4.263 2.145-9.287 2.145-13.55 0h.007V5.796h13.538v7.533z" transform="translate(15 15) translate(5.607)"/>
                                    <g>
                                        <path fill="#FFF" d="M10.393 8.81L1.073 4.917 10.393 1.024 19.714 4.917z" transform="translate(15 15) translate(5.607)"/>
                                        <path fill="#3E4D6C" d="M9.997 9.755L.677 5.862c-.822-.344-.822-1.546 0-1.89L9.997.08c.254-.105.539-.105.792 0l9.32 3.894c.823.343.823 1.545 0 1.889l-9.32 3.893c-.127.053-.392.148-.792 0zM3.73 4.917L10.393 7.7l6.664-2.783-6.664-2.783L3.73 4.917z" transform="translate(15 15) translate(5.607)"/>
                                    </g>
                                </g>
                                <g fill="#3E4D6C">
                                    <path d="M4.376.003L17.094.003 17.094 2.051 4.376 2.051zM0 .003L2.325.003 2.325 2.051 0 2.051zM4.376 4.03L17.094 4.03 17.094 6.078 4.376 6.078zM0 4.03L2.325 4.03 2.325 6.078 0 6.078z" transform="translate(15 15) translate(7.453 17.26)"/>
                                </g>
                            </g>
                        </g>
                    </g>
                </g>
            </g>
        </g>
    </g>
</svg>
