<svg xmlns="http://www.w3.org/2000/svg" xmlns:xlink="http://www.w3.org/1999/xlink" width="41" height="47" viewBox="0 0 41 47"><defs><path id="e02qa" d="M875.5 1135c9.665 0 17.5 7.835 17.5 17.5s-7.835 17.5-17.5 17.5-17.5-7.835-17.5-17.5 7.835-17.5 17.5-17.5z"/><path id="e02qb" d="M867.542 1167.43a1.47 1.47 0 0 1 0 2.07l-2.057 2.07a1.448 1.448 0 0 1-2.057 0 1.47 1.47 0 0 1 0-2.07l2.057-2.07a1.449 1.449 0 0 1 2.057 0z"/><path id="e02qc" d="M883.458 1167.427a1.455 1.455 0 0 0 0 2.057l2.057 2.058a1.454 1.454 0 1 0 2.057-2.058l-2.057-2.057a1.455 1.455 0 0 0-2.057 0z"/><path id="e02qd" d="M875.484 1145.996c.815 0 1.475.625 1.475 1.397v3.63h6.56c.814 0 1.475.664 1.475 1.482 0 .82-.66 1.483-1.475 1.483h-8.035c-.814 0-1.475-.624-1.475-1.396l.001-.042v-5.157c0-.772.66-1.397 1.474-1.397z"/><path id="e02qf" d="M858.336 1140.015c-.05-.079-.105-.153-.153-.235-2.403-4.13-1.061-9.363 2.996-11.687 4.058-2.325 9.295-.862 11.698 3.269.048.081.084.165.128.248 0 0-4.387.94-7.907 2.957-3.804 2.18-6.762 5.448-6.762 5.448z"/><path id="e02qg" d="M892.664 1140.015c.05-.079.105-.153.153-.235 2.403-4.13 1.061-9.363-2.996-11.687-4.058-2.325-9.295-.862-11.698 3.269-.047.081-.084.165-.128.248 0 0 4.387.94 7.907 2.957 3.804 2.18 6.762 5.448 6.762 5.448z"/><path id="e02qj" d="M875.484 1145.996c.815 0 1.475.625 1.475 1.397v3.63h6.56c.814 0 1.475.664 1.475 1.482 0 .82-.66 1.483-1.475 1.483h-8.035c-.814 0-1.475-.624-1.475-1.396l.001-.042v-5.157c0-.772.66-1.397 1.474-1.397z"/><clipPath id="e02qe"><use fill="#fff" xlink:href="#e02qa"/></clipPath><clipPath id="e02qh"><use fill="#fff" xlink:href="#e02qb"/></clipPath><clipPath id="e02qi"><use fill="#fff" xlink:href="#e02qc"/></clipPath><clipPath id="e02qk"><use fill="#fff" xlink:href="#e02qd"/></clipPath></defs><g><g transform="translate(-855 -1125)"><g><use fill="#fff" fill-opacity="0" stroke="#267df4" stroke-miterlimit="50" stroke-width="6" clip-path="url(&quot;#e02qe&quot;)" xlink:href="#e02qa"/></g><g><use fill="#fff" fill-opacity="0" stroke="#267df4" stroke-miterlimit="50" stroke-width="3" xlink:href="#e02qf"/></g><g><use fill="#fff" fill-opacity="0" stroke="#267df4" stroke-miterlimit="50" stroke-width="3" xlink:href="#e02qg"/></g><g><use fill="#fff" fill-opacity="0" stroke="#267df4" stroke-miterlimit="50" stroke-width="6" clip-path="url(&quot;#e02qh&quot;)" xlink:href="#e02qb"/></g><g><use fill="#fff" fill-opacity="0" stroke="#267df4" stroke-miterlimit="50" stroke-width="6" clip-path="url(&quot;#e02qi&quot;)" xlink:href="#e02qc"/></g><g><use fill="#fff" fill-opacity="0" stroke="#267df4" stroke-miterlimit="50" stroke-width="6" clip-path="url(&quot;#e02qk&quot;)" xlink:href="#e02qj"/></g></g></g></svg>