<svg xmlns="http://www.w3.org/2000/svg" xmlns:xlink="http://www.w3.org/1999/xlink" width="42" height="51" viewBox="0 0 42 51"><defs><path id="ph0sa" d="M255 1146a4 4 0 0 1 4-4h34a4 4 0 0 1 4 4v23a4 4 0 0 1-4 4h-34a4 4 0 0 1-4-4z"/><path id="ph0sb" d="M275 1122h2c8.284 0 15 6.715 15 15v8h-32v-8c0-8.285 6.716-15 15-15z"/><path id="ph0sc" d="M276 1127c6.075 0 11 4.925 11 11v7h-22v-7c0-6.075 4.925-11 11-11z"/><path id="ph0sd" d="M268.575 1155.354a1.5 1.5 0 0 1 2.122 0l3.889 3.888 6.717-6.717a1.5 1.5 0 0 1 2.122 2.121l-7.778 7.778a1.5 1.5 0 0 1-2.122 0l-4.95-4.949a1.5 1.5 0 0 1 0-2.121z"/><clipPath id="ph0se"><use fill="#fff" xlink:href="#ph0sa"/></clipPath><clipPath id="ph0sf"><use fill="#fff" xlink:href="#ph0sb"/></clipPath><clipPath id="ph0sg"><use fill="#fff" xlink:href="#ph0sc"/></clipPath><clipPath id="ph0sh"><use fill="#fff" xlink:href="#ph0sd"/></clipPath></defs><g><g transform="translate(-255 -1122)"><g><use fill="#fff" fill-opacity="0" stroke="#267df4" stroke-miterlimit="50" stroke-width="6" clip-path="url(&quot;#ph0se&quot;)" xlink:href="#ph0sa"/></g><g><use fill="#fff" fill-opacity="0" stroke="#267df4" stroke-miterlimit="50" stroke-width="6" clip-path="url(&quot;#ph0sf&quot;)" xlink:href="#ph0sb"/></g><g><use fill="#fff" fill-opacity="0" stroke="#267df4" stroke-miterlimit="50" stroke-width="6" clip-path="url(&quot;#ph0sg&quot;)" xlink:href="#ph0sc"/></g><g><use fill="#fff" fill-opacity="0" stroke="#267df4" stroke-miterlimit="50" stroke-width="6" clip-path="url(&quot;#ph0sh&quot;)" xlink:href="#ph0sd"/></g></g></g></svg>